<mxfile host="app.diagrams.net" agent="Mozilla/5.0 (Macintosh; Intel Mac OS X 10.15; rv:136.0) Gecko/20100101 Firefox/136.0" version="26.2.2">
  <diagram name="Page-1" id="xKhlsxAtRhAonfhplPug">
    <mxGraphModel dx="1545" dy="919" grid="1" gridSize="10" guides="1" tooltips="1" connect="1" arrows="1" fold="1" page="1" pageScale="1" pageWidth="1920" pageHeight="1200" math="0" shadow="0">
      <root>
        <mxCell id="0" />
        <mxCell id="1" parent="0" />
        <mxCell id="vIwmV1KeTdYrx_ldE85M-1" value="&lt;p id=&quot;docs-internal-guid-0dbf8726-7fff-35ad-1348-95c43458fe1d&quot; style=&quot;line-height:1.2;margin-top:0pt;margin-bottom:0pt;&quot; dir=&quot;ltr&quot;&gt;&lt;span style=&quot;font-size: 9pt; font-family: &amp;quot;Courier New&amp;quot;, monospace; color: rgb(0, 0, 0); background-color: transparent; font-weight: 400; font-style: normal; font-variant: normal; text-decoration: none; vertical-align: baseline; white-space: pre-wrap;&quot;&gt;&quot;header&quot;: {&lt;/span&gt;&lt;/p&gt;&lt;p style=&quot;line-height:1.2;margin-top:0pt;margin-bottom:0pt;&quot; dir=&quot;ltr&quot;&gt;&lt;span style=&quot;font-size: 9pt; font-family: &amp;quot;Courier New&amp;quot;, monospace; color: rgb(0, 0, 0); background-color: transparent; font-weight: 400; font-style: normal; font-variant: normal; text-decoration: none; vertical-align: baseline; white-space: pre-wrap;&quot;&gt;&lt;span style=&quot;white-space:pre;&quot; class=&quot;Apple-tab-span&quot;&gt;&#x9;&lt;/span&gt;&lt;/span&gt;&lt;span style=&quot;font-size: 9pt; font-family: &amp;quot;Courier New&amp;quot;, monospace; color: rgb(0, 0, 0); background-color: transparent; font-weight: 400; font-style: normal; font-variant: normal; text-decoration: none; vertical-align: baseline; white-space: pre-wrap;&quot;&gt;&quot;divider&quot;: true,&lt;/span&gt;&lt;/p&gt;&lt;p style=&quot;line-height:1.2;margin-top:0pt;margin-bottom:0pt;&quot; dir=&quot;ltr&quot;&gt;&lt;span style=&quot;font-size: 9pt; font-family: &amp;quot;Courier New&amp;quot;, monospace; color: rgb(0, 0, 0); background-color: transparent; font-weight: 400; font-style: normal; font-variant: normal; text-decoration: none; vertical-align: baseline; white-space: pre-wrap;&quot;&gt;&lt;span style=&quot;white-space:pre;&quot; class=&quot;Apple-tab-span&quot;&gt;&#x9;&lt;/span&gt;&lt;/span&gt;&lt;span style=&quot;font-size: 9pt; font-family: &amp;quot;Courier New&amp;quot;, monospace; color: rgb(0, 0, 0); background-color: transparent; font-weight: 400; font-style: normal; font-variant: normal; text-decoration: none; vertical-align: baseline; white-space: pre-wrap;&quot;&gt;&quot;header&quot;: &quot;Demo-KG Gene Regulatory Network&quot;,&lt;/span&gt;&lt;/p&gt;&lt;p style=&quot;line-height:1.2;margin-top:0pt;margin-bottom:0pt;&quot; dir=&quot;ltr&quot;&gt;&lt;span style=&quot;font-size: 9pt; font-family: &amp;quot;Courier New&amp;quot;, monospace; color: rgb(0, 0, 0); background-color: transparent; font-weight: 400; font-style: normal; font-variant: normal; text-decoration: none; vertical-align: baseline; white-space: pre-wrap;&quot;&gt;&lt;span style=&quot;white-space:pre;&quot; class=&quot;Apple-tab-span&quot;&gt;&#x9;&lt;/span&gt;&lt;/span&gt;&lt;span style=&quot;font-size: 9pt; font-family: &amp;quot;Courier New&amp;quot;, monospace; color: rgb(0, 0, 0); background-color: transparent; font-weight: 400; font-style: normal; font-variant: normal; text-decoration: none; vertical-align: baseline; white-space: pre-wrap;&quot;&gt;&quot;title&quot;: &quot;Demo-KGo Gene Regulatory Network&quot;,&lt;/span&gt;&lt;/p&gt;&lt;p style=&quot;line-height:1.2;margin-top:0pt;margin-bottom:0pt;&quot; dir=&quot;ltr&quot;&gt;&lt;span style=&quot;font-size: 9pt; font-family: &amp;quot;Courier New&amp;quot;, monospace; color: rgb(0, 0, 0); background-color: transparent; font-weight: 400; font-style: normal; font-variant: normal; text-decoration: none; vertical-align: baseline; white-space: pre-wrap;&quot;&gt;&lt;span style=&quot;white-space:pre;&quot; class=&quot;Apple-tab-span&quot;&gt;&#x9;&lt;/span&gt;&lt;/span&gt;&lt;span style=&quot;font-size: 9pt; font-family: &amp;quot;Courier New&amp;quot;, monospace; color: rgb(0, 0, 0); background-color: transparent; font-weight: 400; font-style: normal; font-variant: normal; text-decoration: none; vertical-align: baseline; white-space: pre-wrap;&quot;&gt;&quot;background&quot;: {&lt;/span&gt;&lt;/p&gt;&lt;p style=&quot;line-height:1.2;margin-top:0pt;margin-bottom:0pt;&quot; dir=&quot;ltr&quot;&gt;&lt;span style=&quot;font-size: 9pt; font-family: &amp;quot;Courier New&amp;quot;, monospace; color: rgb(0, 0, 0); background-color: transparent; font-weight: 400; font-style: normal; font-variant: normal; text-decoration: none; vertical-align: baseline; white-space: pre-wrap;&quot;&gt;&lt;span style=&quot;white-space:pre;&quot; class=&quot;Apple-tab-span&quot;&gt;&#x9;&lt;/span&gt;&lt;/span&gt;&lt;span style=&quot;font-size: 9pt; font-family: &amp;quot;Courier New&amp;quot;, monospace; color: rgb(0, 0, 0); background-color: transparent; font-weight: 400; font-style: normal; font-variant: normal; text-decoration: none; vertical-align: baseline; white-space: pre-wrap;&quot;&gt;&lt;span style=&quot;white-space:pre;&quot; class=&quot;Apple-tab-span&quot;&gt;&#x9;&lt;/span&gt;&lt;/span&gt;&lt;span style=&quot;font-size: 9pt; font-family: &amp;quot;Courier New&amp;quot;, monospace; color: rgb(0, 0, 0); background-color: transparent; font-weight: 400; font-style: normal; font-variant: normal; text-decoration: none; vertical-align: baseline; white-space: pre-wrap;&quot;&gt;&quot;backgroundColor&quot;: &quot;#000&quot;,&lt;/span&gt;&lt;/p&gt;&lt;p style=&quot;line-height:1.2;margin-top:0pt;margin-bottom:0pt;&quot; dir=&quot;ltr&quot;&gt;&lt;span style=&quot;font-size: 9pt; font-family: &amp;quot;Courier New&amp;quot;, monospace; color: rgb(0, 0, 0); background-color: transparent; font-weight: 400; font-style: normal; font-variant: normal; text-decoration: none; vertical-align: baseline; white-space: pre-wrap;&quot;&gt;&lt;span style=&quot;white-space:pre;&quot; class=&quot;Apple-tab-span&quot;&gt;&#x9;&lt;/span&gt;&lt;/span&gt;&lt;span style=&quot;font-size: 9pt; font-family: &amp;quot;Courier New&amp;quot;, monospace; color: rgb(0, 0, 0); background-color: transparent; font-weight: 400; font-style: normal; font-variant: normal; text-decoration: none; vertical-align: baseline; white-space: pre-wrap;&quot;&gt;&lt;span style=&quot;white-space:pre;&quot; class=&quot;Apple-tab-span&quot;&gt;&#x9;&lt;/span&gt;&lt;/span&gt;&lt;span style=&quot;font-size: 9pt; font-family: &amp;quot;Courier New&amp;quot;, monospace; color: rgb(0, 0, 0); background-color: transparent; font-weight: 400; font-style: normal; font-variant: normal; text-decoration: none; vertical-align: baseline; white-space: pre-wrap;&quot;&gt;&quot;contrastText&quot;: &quot;#FFF&quot;&lt;/span&gt;&lt;/p&gt;&lt;p style=&quot;line-height:1.2;margin-top:0pt;margin-bottom:0pt;&quot; dir=&quot;ltr&quot;&gt;&lt;span style=&quot;font-size: 9pt; font-family: &amp;quot;Courier New&amp;quot;, monospace; color: rgb(0, 0, 0); background-color: transparent; font-weight: 400; font-style: normal; font-variant: normal; text-decoration: none; vertical-align: baseline; white-space: pre-wrap;&quot;&gt;&lt;span style=&quot;white-space:pre;&quot; class=&quot;Apple-tab-span&quot;&gt;&#x9;&lt;/span&gt;&lt;/span&gt;&lt;span style=&quot;font-size: 9pt; font-family: &amp;quot;Courier New&amp;quot;, monospace; color: rgb(0, 0, 0); background-color: transparent; font-weight: 400; font-style: normal; font-variant: normal; text-decoration: none; vertical-align: baseline; white-space: pre-wrap;&quot;&gt;},&lt;/span&gt;&lt;/p&gt;&lt;p style=&quot;line-height:1.2;margin-top:0pt;margin-bottom:0pt;&quot; dir=&quot;ltr&quot;&gt;&lt;span style=&quot;font-size: 9pt; font-family: &amp;quot;Courier New&amp;quot;, monospace; color: rgb(0, 0, 0); background-color: transparent; font-weight: 400; font-style: normal; font-variant: normal; text-decoration: none; vertical-align: baseline; white-space: pre-wrap;&quot;&gt;&lt;span style=&quot;white-space:pre;&quot; class=&quot;Apple-tab-span&quot;&gt;&#x9;&lt;/span&gt;&lt;/span&gt;&lt;span style=&quot;font-size: 9pt; font-family: &amp;quot;Courier New&amp;quot;, monospace; color: rgb(0, 0, 0); background-color: transparent; font-weight: 400; font-style: normal; font-variant: normal; text-decoration: none; vertical-align: baseline; white-space: pre-wrap;&quot;&gt;&quot;icon&quot;: {&lt;/span&gt;&lt;/p&gt;&lt;p style=&quot;line-height:1.2;margin-top:0pt;margin-bottom:0pt;&quot; dir=&quot;ltr&quot;&gt;&lt;span style=&quot;font-size: 9pt; font-family: &amp;quot;Courier New&amp;quot;, monospace; color: rgb(0, 0, 0); background-color: transparent; font-weight: 400; font-style: normal; font-variant: normal; text-decoration: none; vertical-align: baseline; white-space: pre-wrap;&quot;&gt;&lt;span style=&quot;white-space:pre;&quot; class=&quot;Apple-tab-span&quot;&gt;&#x9;&lt;/span&gt;&lt;/span&gt;&lt;span style=&quot;font-size: 9pt; font-family: &amp;quot;Courier New&amp;quot;, monospace; color: rgb(0, 0, 0); background-color: transparent; font-weight: 400; font-style: normal; font-variant: normal; text-decoration: none; vertical-align: baseline; white-space: pre-wrap;&quot;&gt;&lt;span style=&quot;white-space:pre;&quot; class=&quot;Apple-tab-span&quot;&gt;&#x9;&lt;/span&gt;&lt;/span&gt;&lt;span style=&quot;font-size: 9pt; font-family: &amp;quot;Courier New&amp;quot;, monospace; color: rgb(0, 0, 0); background-color: transparent; font-weight: 400; font-style: normal; font-variant: normal; text-decoration: none; vertical-align: baseline; white-space: pre-wrap;&quot;&gt;&quot;src&quot;: &quot;https://minio.dev.maayanlab.cloud/enrichr-kg/enrichr-kg.png&quot;,&lt;/span&gt;&lt;/p&gt;&lt;p style=&quot;line-height:1.2;margin-top:0pt;margin-bottom:0pt;&quot; dir=&quot;ltr&quot;&gt;&lt;span style=&quot;font-size: 9pt; font-family: &amp;quot;Courier New&amp;quot;, monospace; color: rgb(0, 0, 0); background-color: transparent; font-weight: 400; font-style: normal; font-variant: normal; text-decoration: none; vertical-align: baseline; white-space: pre-wrap;&quot;&gt;&lt;span style=&quot;white-space:pre;&quot; class=&quot;Apple-tab-span&quot;&gt;&#x9;&lt;/span&gt;&lt;/span&gt;&lt;span style=&quot;font-size: 9pt; font-family: &amp;quot;Courier New&amp;quot;, monospace; color: rgb(0, 0, 0); background-color: transparent; font-weight: 400; font-style: normal; font-variant: normal; text-decoration: none; vertical-align: baseline; white-space: pre-wrap;&quot;&gt;&lt;span style=&quot;white-space:pre;&quot; class=&quot;Apple-tab-span&quot;&gt;&#x9;&lt;/span&gt;&lt;/span&gt;&lt;span style=&quot;font-size: 9pt; font-family: &amp;quot;Courier New&amp;quot;, monospace; color: rgb(0, 0, 0); background-color: transparent; font-weight: 400; font-style: normal; font-variant: normal; text-decoration: none; vertical-align: baseline; white-space: pre-wrap;&quot;&gt;&quot;favicon&quot;: &quot;https://minio.dev.maayanlab.cloud/enrichr-kg/enrichr-kg.png&quot;,&lt;/span&gt;&lt;/p&gt;&lt;p style=&quot;line-height:1.2;margin-top:0pt;margin-bottom:0pt;&quot; dir=&quot;ltr&quot;&gt;&lt;span style=&quot;font-size: 9pt; font-family: &amp;quot;Courier New&amp;quot;, monospace; color: rgb(0, 0, 0); background-color: transparent; font-weight: 400; font-style: normal; font-variant: normal; text-decoration: none; vertical-align: baseline; white-space: pre-wrap;&quot;&gt;&lt;span style=&quot;white-space:pre;&quot; class=&quot;Apple-tab-span&quot;&gt;&#x9;&lt;/span&gt;&lt;/span&gt;&lt;span style=&quot;font-size: 9pt; font-family: &amp;quot;Courier New&amp;quot;, monospace; color: rgb(0, 0, 0); background-color: transparent; font-weight: 400; font-style: normal; font-variant: normal; text-decoration: none; vertical-align: baseline; white-space: pre-wrap;&quot;&gt;&lt;span style=&quot;white-space:pre;&quot; class=&quot;Apple-tab-span&quot;&gt;&#x9;&lt;/span&gt;&lt;/span&gt;&lt;span style=&quot;font-size: 9pt; font-family: &amp;quot;Courier New&amp;quot;, monospace; color: rgb(0, 0, 0); background-color: transparent; font-weight: 400; font-style: normal; font-variant: normal; text-decoration: none; vertical-align: baseline; white-space: pre-wrap;&quot;&gt;&quot;faviconTitle&quot;: &quot;Demo-KG&quot;,&lt;/span&gt;&lt;/p&gt;&lt;p style=&quot;line-height:1.2;margin-top:0pt;margin-bottom:0pt;&quot; dir=&quot;ltr&quot;&gt;&lt;span style=&quot;font-size: 9pt; font-family: &amp;quot;Courier New&amp;quot;, monospace; color: rgb(0, 0, 0); background-color: transparent; font-weight: 400; font-style: normal; font-variant: normal; text-decoration: none; vertical-align: baseline; white-space: pre-wrap;&quot;&gt;&lt;span style=&quot;white-space:pre;&quot; class=&quot;Apple-tab-span&quot;&gt;&#x9;&lt;/span&gt;&lt;/span&gt;&lt;span style=&quot;font-size: 9pt; font-family: &amp;quot;Courier New&amp;quot;, monospace; color: rgb(0, 0, 0); background-color: transparent; font-weight: 400; font-style: normal; font-variant: normal; text-decoration: none; vertical-align: baseline; white-space: pre-wrap;&quot;&gt;&lt;span style=&quot;white-space:pre;&quot; class=&quot;Apple-tab-span&quot;&gt;&#x9;&lt;/span&gt;&lt;/span&gt;&lt;span style=&quot;font-size: 9pt; font-family: &amp;quot;Courier New&amp;quot;, monospace; color: rgb(0, 0, 0); background-color: transparent; font-weight: 400; font-style: normal; font-variant: normal; text-decoration: none; vertical-align: baseline; white-space: pre-wrap;&quot;&gt;&quot;alt&quot;: &quot;Demo-KG&quot;,&lt;/span&gt;&lt;/p&gt;&lt;p style=&quot;line-height:1.2;margin-top:0pt;margin-bottom:0pt;&quot; dir=&quot;ltr&quot;&gt;&lt;span style=&quot;font-size: 9pt; font-family: &amp;quot;Courier New&amp;quot;, monospace; color: rgb(0, 0, 0); background-color: transparent; font-weight: 400; font-style: normal; font-variant: normal; text-decoration: none; vertical-align: baseline; white-space: pre-wrap;&quot;&gt;&lt;span style=&quot;white-space:pre;&quot; class=&quot;Apple-tab-span&quot;&gt;&#x9;&lt;/span&gt;&lt;/span&gt;&lt;span style=&quot;font-size: 9pt; font-family: &amp;quot;Courier New&amp;quot;, monospace; color: rgb(0, 0, 0); background-color: transparent; font-weight: 400; font-style: normal; font-variant: normal; text-decoration: none; vertical-align: baseline; white-space: pre-wrap;&quot;&gt;&lt;span style=&quot;white-space:pre;&quot; class=&quot;Apple-tab-span&quot;&gt;&#x9;&lt;/span&gt;&lt;/span&gt;&lt;span style=&quot;font-size: 9pt; font-family: &amp;quot;Courier New&amp;quot;, monospace; color: rgb(0, 0, 0); background-color: transparent; font-weight: 400; font-style: normal; font-variant: normal; text-decoration: none; vertical-align: baseline; white-space: pre-wrap;&quot;&gt;&quot;key&quot;: &quot;Demo-KG_logo&quot;,&lt;/span&gt;&lt;/p&gt;&lt;p style=&quot;line-height:1.2;margin-top:0pt;margin-bottom:0pt;&quot; dir=&quot;ltr&quot;&gt;&lt;span style=&quot;font-size: 9pt; font-family: &amp;quot;Courier New&amp;quot;, monospace; color: rgb(0, 0, 0); background-color: transparent; font-weight: 400; font-style: normal; font-variant: normal; text-decoration: none; vertical-align: baseline; white-space: pre-wrap;&quot;&gt;&lt;span style=&quot;white-space:pre;&quot; class=&quot;Apple-tab-span&quot;&gt;&#x9;&lt;/span&gt;&lt;/span&gt;&lt;span style=&quot;font-size: 9pt; font-family: &amp;quot;Courier New&amp;quot;, monospace; color: rgb(0, 0, 0); background-color: transparent; font-weight: 400; font-style: normal; font-variant: normal; text-decoration: none; vertical-align: baseline; white-space: pre-wrap;&quot;&gt;&lt;span style=&quot;white-space:pre;&quot; class=&quot;Apple-tab-span&quot;&gt;&#x9;&lt;/span&gt;&lt;/span&gt;&lt;span style=&quot;font-size: 9pt; font-family: &amp;quot;Courier New&amp;quot;, monospace; color: rgb(0, 0, 0); background-color: transparent; font-weight: 400; font-style: normal; font-variant: normal; text-decoration: none; vertical-align: baseline; white-space: pre-wrap;&quot;&gt;&quot;width&quot;: 100,&lt;/span&gt;&lt;/p&gt;&lt;p style=&quot;line-height:1.2;margin-top:0pt;margin-bottom:0pt;&quot; dir=&quot;ltr&quot;&gt;&lt;span style=&quot;font-size: 9pt; font-family: &amp;quot;Courier New&amp;quot;, monospace; color: rgb(0, 0, 0); background-color: transparent; font-weight: 400; font-style: normal; font-variant: normal; text-decoration: none; vertical-align: baseline; white-space: pre-wrap;&quot;&gt;&lt;span style=&quot;white-space:pre;&quot; class=&quot;Apple-tab-span&quot;&gt;&#x9;&lt;/span&gt;&lt;/span&gt;&lt;span style=&quot;font-size: 9pt; font-family: &amp;quot;Courier New&amp;quot;, monospace; color: rgb(0, 0, 0); background-color: transparent; font-weight: 400; font-style: normal; font-variant: normal; text-decoration: none; vertical-align: baseline; white-space: pre-wrap;&quot;&gt;&lt;span style=&quot;white-space:pre;&quot; class=&quot;Apple-tab-span&quot;&gt;&#x9;&lt;/span&gt;&lt;/span&gt;&lt;span style=&quot;font-size: 9pt; font-family: &amp;quot;Courier New&amp;quot;, monospace; color: rgb(0, 0, 0); background-color: transparent; font-weight: 400; font-style: normal; font-variant: normal; text-decoration: none; vertical-align: baseline; white-space: pre-wrap;&quot;&gt;&quot;height&quot;: 60,&lt;/span&gt;&lt;/p&gt;&lt;p style=&quot;line-height:1.2;margin-left: 36pt;margin-top:0pt;margin-bottom:0pt;&quot; dir=&quot;ltr&quot;&gt;&lt;span style=&quot;font-size: 9pt; font-family: &amp;quot;Courier New&amp;quot;, monospace; color: rgb(0, 0, 0); background-color: transparent; font-weight: 400; font-style: normal; font-variant: normal; text-decoration: none; vertical-align: baseline; white-space: pre-wrap;&quot;&gt;&quot;avatar&quot;: true&lt;/span&gt;&lt;/p&gt;&lt;p style=&quot;line-height:1.2;margin-top:0pt;margin-bottom:0pt;&quot; dir=&quot;ltr&quot;&gt;&lt;span style=&quot;font-size: 9pt; font-family: &amp;quot;Courier New&amp;quot;, monospace; color: rgb(0, 0, 0); background-color: transparent; font-weight: 400; font-style: normal; font-variant: normal; text-decoration: none; vertical-align: baseline; white-space: pre-wrap;&quot;&gt;&lt;span style=&quot;white-space:pre;&quot; class=&quot;Apple-tab-span&quot;&gt;&#x9;&lt;/span&gt;&lt;/span&gt;&lt;span style=&quot;font-size: 9pt; font-family: &amp;quot;Courier New&amp;quot;, monospace; color: rgb(0, 0, 0); background-color: transparent; font-weight: 400; font-style: normal; font-variant: normal; text-decoration: none; vertical-align: baseline; white-space: pre-wrap;&quot;&gt;},&lt;/span&gt;&lt;/p&gt;&lt;p style=&quot;line-height:1.2;margin-top:0pt;margin-bottom:0pt;&quot; dir=&quot;ltr&quot;&gt;&lt;span style=&quot;font-size: 9pt; font-family: &amp;quot;Courier New&amp;quot;, monospace; color: rgb(0, 0, 0); background-color: transparent; font-weight: 400; font-style: normal; font-variant: normal; text-decoration: none; vertical-align: baseline; white-space: pre-wrap;&quot;&gt;&lt;span style=&quot;white-space:pre;&quot; class=&quot;Apple-tab-span&quot;&gt;&#x9;&lt;/span&gt;&lt;/span&gt;&lt;span style=&quot;font-size: 9pt; font-family: &amp;quot;Courier New&amp;quot;, monospace; color: rgb(0, 0, 0); background-color: transparent; font-weight: 400; font-style: normal; font-variant: normal; text-decoration: none; vertical-align: baseline; white-space: pre-wrap;&quot;&gt;&quot;tabs&quot;: [&lt;/span&gt;&lt;/p&gt;&lt;p style=&quot;line-height:1.2;margin-top:0pt;margin-bottom:0pt;&quot; dir=&quot;ltr&quot;&gt;&lt;span style=&quot;font-size: 9pt; font-family: &amp;quot;Courier New&amp;quot;, monospace; color: rgb(0, 0, 0); background-color: transparent; font-weight: 400; font-style: normal; font-variant: normal; text-decoration: none; vertical-align: baseline; white-space: pre-wrap;&quot;&gt;&lt;span style=&quot;white-space: pre;&quot;&gt;&#x9;&lt;/span&gt;&lt;span style=&quot;white-space: pre;&quot;&gt;&#x9;&lt;/span&gt;...&lt;/span&gt;&lt;/p&gt;&lt;p style=&quot;line-height:1.2;margin-top:0pt;margin-bottom:0pt;&quot; dir=&quot;ltr&quot;&gt;&lt;span style=&quot;font-size: 9pt; font-family: &amp;quot;Courier New&amp;quot;, monospace; color: rgb(0, 0, 0); background-color: transparent; font-weight: 400; font-style: normal; font-variant: normal; text-decoration: none; vertical-align: baseline; white-space: pre-wrap;&quot;&gt;&lt;span style=&quot;white-space:pre;&quot; class=&quot;Apple-tab-span&quot;&gt;&#x9;&lt;/span&gt;&lt;/span&gt;&lt;span style=&quot;font-size: 9pt; font-family: &amp;quot;Courier New&amp;quot;, monospace; color: rgb(0, 0, 0); background-color: transparent; font-weight: 400; font-style: normal; font-variant: normal; text-decoration: none; vertical-align: baseline; white-space: pre-wrap;&quot;&gt;]&lt;/span&gt;&lt;/p&gt;&lt;p style=&quot;line-height:1.2;margin-top:0pt;margin-bottom:0pt;&quot; dir=&quot;ltr&quot;&gt;&lt;span style=&quot;font-size: 9pt; font-family: &amp;quot;Courier New&amp;quot;, monospace; color: rgb(0, 0, 0); background-color: transparent; font-weight: 400; font-style: normal; font-variant: normal; text-decoration: none; vertical-align: baseline; white-space: pre-wrap;&quot;&gt;}&lt;/span&gt;&lt;/p&gt;" style="rounded=1;whiteSpace=wrap;html=1;absoluteArcSize=1;strokeWidth=2;align=left;" parent="1" vertex="1">
          <mxGeometry x="40" y="90" width="590" height="360" as="geometry" />
        </mxCell>
        <mxCell id="xF0ErtWWQmBU0uf91U93-8" value="" style="edgeStyle=orthogonalEdgeStyle;rounded=0;orthogonalLoop=1;jettySize=auto;html=1;entryX=0;entryY=0.5;entryDx=0;entryDy=0;" parent="1" source="vIwmV1KeTdYrx_ldE85M-4" target="xF0ErtWWQmBU0uf91U93-6" edge="1">
          <mxGeometry relative="1" as="geometry">
            <Array as="points" />
          </mxGeometry>
        </mxCell>
        <mxCell id="vIwmV1KeTdYrx_ldE85M-4" value="" style="rounded=1;whiteSpace=wrap;html=1;absoluteArcSize=1;strokeWidth=2;fillColor=none;strokeColor=#C3ABD0;" parent="1" vertex="1">
          <mxGeometry x="60" y="120" width="170" height="20" as="geometry" />
        </mxCell>
        <mxCell id="KJg9MqlY0vVZ_PWW_gGS-1" value="" style="edgeStyle=orthogonalEdgeStyle;rounded=0;orthogonalLoop=1;jettySize=auto;html=1;" edge="1" parent="1" source="vIwmV1KeTdYrx_ldE85M-7" target="xF0ErtWWQmBU0uf91U93-5">
          <mxGeometry relative="1" as="geometry" />
        </mxCell>
        <mxCell id="vIwmV1KeTdYrx_ldE85M-7" value="" style="rounded=1;whiteSpace=wrap;html=1;absoluteArcSize=1;strokeWidth=2;fillColor=none;strokeColor=#2F75B6;" parent="1" vertex="1">
          <mxGeometry x="60" y="220" width="560" height="150" as="geometry" />
        </mxCell>
        <mxCell id="KJg9MqlY0vVZ_PWW_gGS-6" value="" style="edgeStyle=orthogonalEdgeStyle;rounded=0;orthogonalLoop=1;jettySize=auto;html=1;" edge="1" parent="1" source="xF0ErtWWQmBU0uf91U93-5" target="KJg9MqlY0vVZ_PWW_gGS-5">
          <mxGeometry relative="1" as="geometry" />
        </mxCell>
        <mxCell id="xF0ErtWWQmBU0uf91U93-5" value="&lt;p style=&quot;line-height:1.2;margin-top:0pt;margin-bottom:0pt;&quot; dir=&quot;ltr&quot;&gt;&lt;span style=&quot;font-size: 9pt; font-family: &amp;quot;Courier New&amp;quot;, monospace; color: rgb(0, 0, 0); background-color: transparent; font-weight: 400; font-style: normal; font-variant: normal; text-decoration: none; vertical-align: baseline; white-space: pre-wrap;&quot;&gt;&lt;/span&gt;&lt;/p&gt;&lt;p style=&quot;line-height:1.2;margin-top:0pt;margin-bottom:0pt;&quot; dir=&quot;ltr&quot;&gt;&lt;span style=&quot;font-size: 9pt; font-family: &amp;quot;Courier New&amp;quot;, monospace; color: rgb(0, 0, 0); background-color: transparent; font-weight: 400; font-style: normal; font-variant: normal; text-decoration: none; vertical-align: baseline; white-space: pre-wrap;&quot;&gt;&lt;span style=&quot;white-space:pre;&quot; class=&quot;Apple-tab-span&quot;&gt;&#x9;&lt;/span&gt;&lt;/span&gt;&lt;span style=&quot;font-size: 9pt; font-family: &amp;quot;Courier New&amp;quot;, monospace; color: rgb(0, 0, 0); background-color: transparent; font-weight: 400; font-style: normal; font-variant: normal; text-decoration: none; vertical-align: baseline; white-space: pre-wrap;&quot;&gt;},&lt;/span&gt;&lt;/p&gt;&lt;p style=&quot;line-height:1.2;margin-top:0pt;margin-bottom:0pt;&quot; dir=&quot;ltr&quot;&gt;&lt;span style=&quot;font-size: 9pt; font-family: &amp;quot;Courier New&amp;quot;, monospace; color: rgb(0, 0, 0); background-color: transparent; font-weight: 400; font-style: normal; font-variant: normal; text-decoration: none; vertical-align: baseline; white-space: pre-wrap;&quot;&gt;&lt;span style=&quot;white-space:pre;&quot; class=&quot;Apple-tab-span&quot;&gt;&#x9;&lt;/span&gt;&lt;/span&gt;&lt;span style=&quot;font-size: 9pt; font-family: &amp;quot;Courier New&amp;quot;, monospace; color: rgb(0, 0, 0); background-color: transparent; font-weight: 400; font-style: normal; font-variant: normal; text-decoration: none; vertical-align: baseline; white-space: pre-wrap;&quot;&gt;&quot;icon&quot;: {&lt;/span&gt;&lt;/p&gt;&lt;p style=&quot;line-height:1.2;margin-top:0pt;margin-bottom:0pt;&quot; dir=&quot;ltr&quot;&gt;&lt;span style=&quot;font-size: 9pt; font-family: &amp;quot;Courier New&amp;quot;, monospace; color: rgb(0, 0, 0); background-color: transparent; font-weight: 400; font-style: normal; font-variant: normal; text-decoration: none; vertical-align: baseline; white-space: pre-wrap;&quot;&gt;&lt;span style=&quot;white-space:pre;&quot; class=&quot;Apple-tab-span&quot;&gt;&#x9;&lt;/span&gt;&lt;/span&gt;&lt;span style=&quot;font-size: 9pt; font-family: &amp;quot;Courier New&amp;quot;, monospace; color: rgb(0, 0, 0); background-color: transparent; font-weight: 400; font-style: normal; font-variant: normal; text-decoration: none; vertical-align: baseline; white-space: pre-wrap;&quot;&gt;&lt;span style=&quot;white-space:pre;&quot; class=&quot;Apple-tab-span&quot;&gt;&#x9;&lt;/span&gt;&lt;/span&gt;&lt;span style=&quot;font-size: 9pt; font-family: &amp;quot;Courier New&amp;quot;, monospace; color: rgb(0, 0, 0); background-color: transparent; font-weight: 400; font-style: normal; font-variant: normal; text-decoration: none; vertical-align: baseline; white-space: pre-wrap;&quot;&gt;&quot;src&quot;: ...&lt;/span&gt;&lt;/p&gt;&lt;p style=&quot;line-height:1.2;margin-top:0pt;margin-bottom:0pt;&quot; dir=&quot;ltr&quot;&gt;&lt;span style=&quot;font-size: 9pt; font-family: &amp;quot;Courier New&amp;quot;, monospace; color: rgb(0, 0, 0); background-color: transparent; font-weight: 400; font-style: normal; font-variant: normal; text-decoration: none; vertical-align: baseline; white-space: pre-wrap;&quot;&gt;&lt;span style=&quot;white-space:pre;&quot; class=&quot;Apple-tab-span&quot;&gt;&#x9;&lt;/span&gt;&lt;/span&gt;&lt;span style=&quot;font-size: 9pt; font-family: &amp;quot;Courier New&amp;quot;, monospace; color: rgb(0, 0, 0); background-color: transparent; font-weight: 400; font-style: normal; font-variant: normal; text-decoration: none; vertical-align: baseline; white-space: pre-wrap;&quot;&gt;&lt;span style=&quot;white-space:pre;&quot; class=&quot;Apple-tab-span&quot;&gt;&#x9;&lt;/span&gt;&lt;/span&gt;&lt;span style=&quot;font-size: 9pt; font-family: &amp;quot;Courier New&amp;quot;, monospace; color: rgb(0, 0, 0); background-color: transparent; font-weight: 400; font-style: normal; font-variant: normal; text-decoration: none; vertical-align: baseline; white-space: pre-wrap;&quot;&gt;&quot;favicon&quot;: ...,&lt;/span&gt;&lt;/p&gt;&lt;p style=&quot;line-height:1.2;margin-top:0pt;margin-bottom:0pt;&quot; dir=&quot;ltr&quot;&gt;&lt;span style=&quot;font-size: 9pt; font-family: &amp;quot;Courier New&amp;quot;, monospace; color: rgb(0, 0, 0); background-color: transparent; font-weight: 400; font-style: normal; font-variant: normal; text-decoration: none; vertical-align: baseline; white-space: pre-wrap;&quot;&gt;&lt;span style=&quot;white-space:pre;&quot; class=&quot;Apple-tab-span&quot;&gt;&#x9;&lt;/span&gt;&lt;/span&gt;&lt;span style=&quot;font-size: 9pt; font-family: &amp;quot;Courier New&amp;quot;, monospace; color: rgb(0, 0, 0); background-color: transparent; font-weight: 400; font-style: normal; font-variant: normal; text-decoration: none; vertical-align: baseline; white-space: pre-wrap;&quot;&gt;&lt;span style=&quot;white-space:pre;&quot; class=&quot;Apple-tab-span&quot;&gt;&#x9;&lt;/span&gt;&lt;/span&gt;&lt;span style=&quot;font-size: 9pt; font-family: &amp;quot;Courier New&amp;quot;, monospace; color: rgb(0, 0, 0); background-color: transparent; font-weight: 400; font-style: normal; font-variant: normal; text-decoration: none; vertical-align: baseline; white-space: pre-wrap;&quot;&gt;&quot;faviconTitle&quot;: &quot;Demo-KG&quot;,&lt;/span&gt;&lt;/p&gt;&lt;p style=&quot;line-height:1.2;margin-top:0pt;margin-bottom:0pt;&quot; dir=&quot;ltr&quot;&gt;&lt;span style=&quot;font-size: 9pt; font-family: &amp;quot;Courier New&amp;quot;, monospace; color: rgb(0, 0, 0); background-color: transparent; font-weight: 400; font-style: normal; font-variant: normal; text-decoration: none; vertical-align: baseline; white-space: pre-wrap;&quot;&gt;&lt;span style=&quot;white-space:pre;&quot; class=&quot;Apple-tab-span&quot;&gt;&#x9;&lt;/span&gt;&lt;/span&gt;&lt;span style=&quot;font-size: 9pt; font-family: &amp;quot;Courier New&amp;quot;, monospace; color: rgb(0, 0, 0); background-color: transparent; font-weight: 400; font-style: normal; font-variant: normal; text-decoration: none; vertical-align: baseline; white-space: pre-wrap;&quot;&gt;&lt;span style=&quot;white-space:pre;&quot; class=&quot;Apple-tab-span&quot;&gt;&#x9;&lt;/span&gt;&lt;/span&gt;&lt;span style=&quot;font-size: 9pt; font-family: &amp;quot;Courier New&amp;quot;, monospace; color: rgb(0, 0, 0); background-color: transparent; font-weight: 400; font-style: normal; font-variant: normal; text-decoration: none; vertical-align: baseline; white-space: pre-wrap;&quot;&gt;&quot;alt&quot;: &quot;Demo-KG&quot;,&lt;/span&gt;&lt;/p&gt;&lt;p style=&quot;line-height:1.2;margin-top:0pt;margin-bottom:0pt;&quot; dir=&quot;ltr&quot;&gt;&lt;span style=&quot;font-size: 9pt; font-family: &amp;quot;Courier New&amp;quot;, monospace; color: rgb(0, 0, 0); background-color: transparent; font-weight: 400; font-style: normal; font-variant: normal; text-decoration: none; vertical-align: baseline; white-space: pre-wrap;&quot;&gt;&lt;span style=&quot;white-space:pre;&quot; class=&quot;Apple-tab-span&quot;&gt;&#x9;&lt;/span&gt;&lt;/span&gt;&lt;span style=&quot;font-size: 9pt; font-family: &amp;quot;Courier New&amp;quot;, monospace; color: rgb(0, 0, 0); background-color: transparent; font-weight: 400; font-style: normal; font-variant: normal; text-decoration: none; vertical-align: baseline; white-space: pre-wrap;&quot;&gt;&lt;span style=&quot;white-space:pre;&quot; class=&quot;Apple-tab-span&quot;&gt;&#x9;&lt;/span&gt;&lt;/span&gt;&lt;span style=&quot;font-size: 9pt; font-family: &amp;quot;Courier New&amp;quot;, monospace; color: rgb(0, 0, 0); background-color: transparent; font-weight: 400; font-style: normal; font-variant: normal; text-decoration: none; vertical-align: baseline; white-space: pre-wrap;&quot;&gt;&quot;key&quot;: &quot;Demo-KG_logo&quot;,&lt;/span&gt;&lt;/p&gt;&lt;p style=&quot;line-height:1.2;margin-top:0pt;margin-bottom:0pt;&quot; dir=&quot;ltr&quot;&gt;&lt;span style=&quot;font-size: 9pt; font-family: &amp;quot;Courier New&amp;quot;, monospace; color: rgb(0, 0, 0); background-color: transparent; font-weight: 400; font-style: normal; font-variant: normal; text-decoration: none; vertical-align: baseline; white-space: pre-wrap;&quot;&gt;&lt;span style=&quot;white-space:pre;&quot; class=&quot;Apple-tab-span&quot;&gt;&#x9;&lt;/span&gt;&lt;/span&gt;&lt;span style=&quot;font-size: 9pt; font-family: &amp;quot;Courier New&amp;quot;, monospace; color: rgb(0, 0, 0); background-color: transparent; font-weight: 400; font-style: normal; font-variant: normal; text-decoration: none; vertical-align: baseline; white-space: pre-wrap;&quot;&gt;&lt;span style=&quot;white-space:pre;&quot; class=&quot;Apple-tab-span&quot;&gt;&#x9;&lt;/span&gt;&lt;/span&gt;&lt;span style=&quot;font-size: 9pt; font-family: &amp;quot;Courier New&amp;quot;, monospace; color: rgb(0, 0, 0); background-color: transparent; font-weight: 400; font-style: normal; font-variant: normal; text-decoration: none; vertical-align: baseline; white-space: pre-wrap;&quot;&gt;&quot;width&quot;: 100,&lt;/span&gt;&lt;/p&gt;&lt;p style=&quot;line-height:1.2;margin-top:0pt;margin-bottom:0pt;&quot; dir=&quot;ltr&quot;&gt;&lt;span style=&quot;font-size: 9pt; font-family: &amp;quot;Courier New&amp;quot;, monospace; color: rgb(0, 0, 0); background-color: transparent; font-weight: 400; font-style: normal; font-variant: normal; text-decoration: none; vertical-align: baseline; white-space: pre-wrap;&quot;&gt;&lt;span style=&quot;white-space:pre;&quot; class=&quot;Apple-tab-span&quot;&gt;&#x9;&lt;/span&gt;&lt;/span&gt;&lt;span style=&quot;font-size: 9pt; font-family: &amp;quot;Courier New&amp;quot;, monospace; color: rgb(0, 0, 0); background-color: transparent; font-weight: 400; font-style: normal; font-variant: normal; text-decoration: none; vertical-align: baseline; white-space: pre-wrap;&quot;&gt;&lt;span style=&quot;white-space:pre;&quot; class=&quot;Apple-tab-span&quot;&gt;&#x9;&lt;/span&gt;&lt;/span&gt;&lt;span style=&quot;font-size: 9pt; font-family: &amp;quot;Courier New&amp;quot;, monospace; color: rgb(0, 0, 0); background-color: transparent; font-weight: 400; font-style: normal; font-variant: normal; text-decoration: none; vertical-align: baseline; white-space: pre-wrap;&quot;&gt;&quot;height&quot;: 60,&lt;/span&gt;&lt;/p&gt;&lt;p style=&quot;line-height:1.2;margin-left: 36pt;margin-top:0pt;margin-bottom:0pt;&quot; dir=&quot;ltr&quot;&gt;&lt;span style=&quot;font-size: 9pt; font-family: &amp;quot;Courier New&amp;quot;, monospace; color: rgb(0, 0, 0); background-color: transparent; font-weight: 400; font-style: normal; font-variant: normal; text-decoration: none; vertical-align: baseline; white-space: pre-wrap;&quot;&gt;&quot;avatar&quot;: true&lt;/span&gt;&lt;/p&gt;&lt;p style=&quot;line-height:1.2;margin-top:0pt;margin-bottom:0pt;&quot; dir=&quot;ltr&quot;&gt;&lt;span style=&quot;font-size: 9pt; font-family: &amp;quot;Courier New&amp;quot;, monospace; color: rgb(0, 0, 0); background-color: transparent; font-weight: 400; font-style: normal; font-variant: normal; text-decoration: none; vertical-align: baseline; white-space: pre-wrap;&quot;&gt;&lt;span style=&quot;white-space:pre;&quot; class=&quot;Apple-tab-span&quot;&gt;&#x9;&lt;/span&gt;&lt;/span&gt;&lt;span style=&quot;font-size: 9pt; font-family: &amp;quot;Courier New&amp;quot;, monospace; color: rgb(0, 0, 0); background-color: transparent; font-weight: 400; font-style: normal; font-variant: normal; text-decoration: none; vertical-align: baseline; white-space: pre-wrap;&quot;&gt;},&lt;/span&gt;&lt;/p&gt;" style="rounded=1;whiteSpace=wrap;html=1;absoluteArcSize=1;strokeWidth=2;fillColor=none;strokeColor=#2F75B6;align=left;verticalAlign=top;" parent="1" vertex="1">
          <mxGeometry x="650" y="200" width="250" height="190" as="geometry" />
        </mxCell>
        <mxCell id="KJg9MqlY0vVZ_PWW_gGS-3" value="" style="edgeStyle=orthogonalEdgeStyle;rounded=0;orthogonalLoop=1;jettySize=auto;html=1;" edge="1" parent="1" source="xF0ErtWWQmBU0uf91U93-6" target="KJg9MqlY0vVZ_PWW_gGS-2">
          <mxGeometry relative="1" as="geometry" />
        </mxCell>
        <mxCell id="xF0ErtWWQmBU0uf91U93-6" value="&lt;p style=&quot;line-height:1.2;margin-top:0pt;margin-bottom:0pt;&quot; dir=&quot;ltr&quot;&gt;&lt;span style=&quot;font-size: 9pt; font-family: &amp;quot;Courier New&amp;quot;, monospace; color: rgb(0, 0, 0); background-color: transparent; font-weight: 400; font-style: normal; font-variant: normal; text-decoration: none; vertical-align: baseline; white-space: pre-wrap;&quot;&gt;&lt;span style=&quot;white-space:pre;&quot; class=&quot;Apple-tab-span&quot;&gt;&#x9;&lt;/span&gt;&lt;/span&gt;&lt;span style=&quot;font-size: 9pt; font-family: &amp;quot;Courier New&amp;quot;, monospace; color: rgb(0, 0, 0); background-color: transparent; font-weight: 400; font-style: normal; font-variant: normal; text-decoration: none; vertical-align: baseline; white-space: pre-wrap;&quot;&gt;&quot;divider&quot;: true,&lt;/span&gt;&lt;/p&gt;" style="rounded=1;whiteSpace=wrap;html=1;absoluteArcSize=1;strokeWidth=2;fillColor=none;strokeColor=#C3ABD0;align=left;verticalAlign=top;" parent="1" vertex="1">
          <mxGeometry x="660" y="115" width="180" height="30" as="geometry" />
        </mxCell>
        <mxCell id="KJg9MqlY0vVZ_PWW_gGS-2" value="" style="whiteSpace=wrap;html=1;align=left;verticalAlign=top;fillColor=#000000;strokeColor=#C3ABD0;rounded=1;absoluteArcSize=1;strokeWidth=2;" vertex="1" parent="1">
          <mxGeometry x="860" y="100" width="350" height="60" as="geometry" />
        </mxCell>
        <mxCell id="KJg9MqlY0vVZ_PWW_gGS-4" value="" style="shape=image;verticalLabelPosition=bottom;labelBackgroundColor=default;verticalAlign=top;aspect=fixed;imageAspect=0;image=data:image/png,iVBORw0KGgoAAAANSUhEUgAAA0QAAABgCAYAAAA9zLKTAAAMTGlDQ1BJQ0MgUHJvZmlsZQAASImVVwdYU8kWnltSIQQIREBK6E0QkRJASggtgPQiiEpIAoQSY0JQsaOLCq5dRLCiqyCKHRCxYVcWxe5aFgsqK+tiwa68CQF02Ve+N983d/77z5l/zjl35t47ANDb+VJpDqoJQK4kTxYT7M8al5TMInUCFGgAChgJ3PgCuZQTFRUOYBlo/17e3QSIsr3moNT6Z/9/LVpCkVwAABIFcZpQLsiF+CAAeJNAKssDgCiFvPnUPKkSr4ZYRwYdhLhKiTNUuEmJ01T4Sp9NXAwX4icAkNX5fFkGABrdkGflCzKgDh1GC5wkQrEEYj+IfXJzJwshnguxDbSBc9KV+uy0H3Qy/qaZNqjJ52cMYlUsfYUcIJZLc/jT/890/O+Sm6MYmMMaVvVMWUiMMmaYtyfZk8OUWB3iD5K0iEiItQFAcbGwz16JmZmKkHiVPWojkHNhzgAT4jHynFhePx8j5AeEQWwIcbokJyK836YwXRyktIH5Q8vEebw4iPUgrhLJA2P7bU7IJscMzHszXcbl9PPP+bI+H5T63xTZ8RyVPqadKeL162OOBZlxiRBTIQ7IFydEQKwBcYQ8Ozas3yalIJMbMWAjU8QoY7GAWCaSBPur9LHSdFlQTL/9zlz5QOzYiUwxL6IfX83LjAtR5Qp7IuD3+Q9jwbpFEk78gI5IPi58IBahKCBQFTtOFkniY1U8rifN849RjcXtpDlR/fa4vygnWMmbQRwnz48dGJufBxenSh8vkuZFxan8xMuz+KFRKn/wvSAccEEAYAEFrGlgMsgC4tau+i54p+oJAnwgAxlABBz6mYERiX09EniNBQXgT4hEQD44zr+vVwTyIf91CKvkxIOc6uoA0vv7lCrZ4CnEuSAM5MB7RZ+SZNCDBPAEMuJ/eMSHVQBjyIFV2f/v+QH2O8OBTHg/oxiYkUUfsCQGEgOIIcQgoi1ugPvgXng4vPrB6oyzcY+BOL7bE54S2giPCDcI7YQ7k8SFsiFejgXtUD+oPz9pP+YHt4Karrg/7g3VoTLOxA2AA+4C5+HgvnBmV8hy+/1WZoU1RPtvEfzwhPrtKE4UlDKM4kexGTpSw07DdVBFmesf86PyNW0w39zBnqHzc3/IvhC2YUMtsUXYAewcdhK7gDVh9YCFHccasBbsqBIPrrgnfStuYLaYPn+yoc7QNfP9ySozKXeqcep0+qLqyxNNy1NuRu5k6XSZOCMzj8WBXwwRiycROI5gOTs5uwKg/P6oXm9vovu+Kwiz5Ts3/3cAvI/39vYe+c6FHgdgnzt8JRz+ztmw4adFDYDzhwUKWb6Kw5UXAnxz0OHu0wfGwBzYwHicgRvwAn4gEISCSBAHksBE6H0mXOcyMBXMBPNAESgBy8EaUA42ga2gCuwG+0E9aAInwVlwCVwBN8BduHo6wAvQDd6BzwiCkBAawkD0ERPEErFHnBE24oMEIuFIDJKEpCIZiARRIDOR+UgJshIpR7Yg1cg+5DByErmAtCF3kIdIJ/Ia+YRiqDqqgxqhVuhIlI1y0DA0Dp2AZqBT0AJ0AboULUMr0V1oHXoSvYTeQNvRF2gPBjA1jImZYg4YG+NikVgylo7JsNlYMVaKVWK1WCN8ztewdqwL+4gTcQbOwh3gCg7B43EBPgWfjS/By/EqvA4/jV/DH+Ld+DcCjWBIsCd4EniEcYQMwlRCEaGUsJ1wiHAG7qUOwjsikcgkWhPd4V5MImYRZxCXEDcQ9xBPENuIj4k9JBJJn2RP8iZFkvikPFIRaR1pF+k46Sqpg/SBrEY2ITuTg8jJZAm5kFxK3kk+Rr5Kfkb+TNGkWFI8KZEUIWU6ZRllG6WRcpnSQflM1aJaU72pcdQs6jxqGbWWeoZ6j/pGTU3NTM1DLVpNrDZXrUxtr9p5tYdqH9W11e3Uueop6gr1peo71E+o31F/Q6PRrGh+tGRaHm0prZp2ivaA9kGDoeGowdMQaszRqNCo07iq8ZJOoVvSOfSJ9AJ6Kf0A/TK9S5OiaaXJ1eRrztas0DyseUuzR4uhNUorUitXa4nWTq0LWs+1SdpW2oHaQu0F2lu1T2k/ZmAMcwaXIWDMZ2xjnGF06BB1rHV4Olk6JTq7dVp1unW1dV10E3Sn6VboHtVtZ2JMKyaPmcNcxtzPvMn8NMxoGGeYaNjiYbXDrg57rzdcz09PpFest0fvht4nfZZ+oH62/gr9ev37BriBnUG0wVSDjQZnDLqG6wz3Gi4YXjx8//DfDFFDO8MYwxmGWw1bDHuMjI2CjaRG64xOGXUZM439jLOMVxsfM+40YZj4mIhNVpscN/mDpcvisHJYZazTrG5TQ9MQU4XpFtNW089m1mbxZoVme8zum1PN2ebp5qvNm827LUwsxlrMtKix+M2SYsm2zLRca3nO8r2VtVWi1UKreqvn1nrWPOsC6xrrezY0G1+bKTaVNtdtibZs22zbDbZX7FA7V7tMuwq7y/aovZu92H6DfdsIwgiPEZIRlSNuOag7cBzyHWocHjoyHcMdCx3rHV+OtBiZPHLFyHMjvzm5OuU4bXO6O0p7VOiowlGNo1472zkLnCucr4+mjQ4aPWd0w+hXLvYuIpeNLrddGa5jXRe6Nrt+dXN3k7nVunW6W7inuq93v8XWYUexl7DPexA8/D3meDR5fPR088zz3O/5l5eDV7bXTq/nY6zHiMZsG/PY28yb773Fu92H5ZPqs9mn3dfUl+9b6fvIz9xP6Lfd7xnHlpPF2cV56e/kL/M/5P+e68mdxT0RgAUEBxQHtAZqB8YHlgc+CDILygiqCeoOdg2eEXwihBASFrIi5BbPiCfgVfO6Q91DZ4WeDlMPiw0rD3sUbhcuC28ci44NHbtq7L0IywhJRH0kiORFroq8H2UdNSXqSDQxOiq6IvppzKiYmTHnYhmxk2J3xr6L849bFnc33iZeEd+cQE9ISahOeJ8YkLgysX3cyHGzxl1KMkgSJzUkk5ITkrcn94wPHL9mfEeKa0pRys0J1hOmTbgw0WBizsSjk+iT+JMOpBJSE1N3pn7hR/Ir+T1pvLT1ad0CrmCt4IXQT7ha2CnyFq0UPUv3Tl+Z/jzDO2NVRmemb2ZpZpeYKy4Xv8oKydqU9T47MntHdm9OYs6eXHJuau5hibYkW3J6svHkaZPbpPbSImn7FM8pa6Z0y8Jk2+WIfIK8IU8H/ui3KGwUPyke5vvkV+R/mJow9cA0rWmSaS3T7aYvnv6sIKjglxn4DMGM5pmmM+fNfDiLM2vLbGR22uzmOeZzFszpmBs8t2oedV72vF8LnQpXFr6dnzi/cYHRgrkLHv8U/FNNkUaRrOjWQq+Fmxbhi8SLWhePXrxu8bdiYfHFEqeS0pIvSwRLLv486ueyn3uXpi9tXea2bONy4nLJ8psrfFdUrdRaWbDy8aqxq+pWs1YXr367ZtKaC6UupZvWUtcq1raXhZc1rLNYt3zdl/LM8hsV/hV71huuX7z+/Qbhhqsb/TbWbjLaVLLp02bx5ttbgrfUVVpVlm4lbs3f+nRbwrZzv7B/qd5usL1k+9cdkh3tVTFVp6vdq6t3Gu5cVoPWKGo6d6XsurI7YHdDrUPtlj3MPSV7wV7F3j/2pe67uT9sf/MB9oHag5YH1x9iHCquQ+qm13XXZ9a3NyQ1tB0OPdzc6NV46IjjkR1Npk0VR3WPLjtGPbbgWO/xguM9J6Qnuk5mnHzcPKn57qlxp66fjj7deibszPmzQWdPneOcO37e+3zTBc8Lhy+yL9ZfcrtU1+LacuhX118Ptbq11l12v9xwxeNKY9uYtmNXfa+evBZw7ex13vVLNyJutN2Mv3n7Vsqt9tvC28/v5Nx59Vv+b5/vzr1HuFd8X/N+6QPDB5W/2/6+p92t/ejDgIctj2If3X0sePziifzJl44FT2lPS5+ZPKt+7vy8qTOo88of4//oeCF98bmr6E+tP9e/tHl58C+/v1q6x3V3vJK96n295I3+mx1vXd4290T1PHiX++7z++IP+h+qPrI/nvuU+OnZ56lfSF/Kvtp+bfwW9u1eb25vr5Qv4/f9CmBAebRJB+D1DgBoSQAw4LmROl51PuwriOpM24fAf8KqM2RfcQOgFv7TR3fBv5tbAOzdBoAV1KenABBFAyDOA6CjRw/WgbNc37lTWYjwbLA56mtabhr4N0V1Jv3B76EtUKq6gKHtvwBrXYMyn9YgfAAAAIplWElmTU0AKgAAAAgABAEaAAUAAAABAAAAPgEbAAUAAAABAAAARgEoAAMAAAABAAIAAIdpAAQAAAABAAAATgAAAAAAAACQAAAAAQAAAJAAAAABAAOShgAHAAAAEgAAAHigAgAEAAAAAQAAA0SgAwAEAAAAAQAAAGAAAAAAQVNDSUkAAABTY3JlZW5zaG900qPyKwAAAAlwSFlzAAAWJQAAFiUBSVIk8AAAAdVpVFh0WE1MOmNvbS5hZG9iZS54bXAAAAAAADx4OnhtcG1ldGEgeG1sbnM6eD0iYWRvYmU6bnM6bWV0YS8iIHg6eG1wdGs9IlhNUCBDb3JlIDYuMC4wIj4KICAgPHJkZjpSREYgeG1sbnM6cmRmPSJodHRwOi8vd3d3LnczLm9yZy8xOTk5LzAyLzIyLXJkZi1zeW50YXgtbnMjIj4KICAgICAgPHJkZjpEZXNjcmlwdGlvbiByZGY6YWJvdXQ9IiIKICAgICAgICAgICAgeG1sbnM6ZXhpZj0iaHR0cDovL25zLmFkb2JlLmNvbS9leGlmLzEuMC8iPgogICAgICAgICA8ZXhpZjpQaXhlbFlEaW1lbnNpb24+OTY8L2V4aWY6UGl4ZWxZRGltZW5zaW9uPgogICAgICAgICA8ZXhpZjpQaXhlbFhEaW1lbnNpb24+ODM2PC9leGlmOlBpeGVsWERpbWVuc2lvbj4KICAgICAgICAgPGV4aWY6VXNlckNvbW1lbnQ+U2NyZWVuc2hvdDwvZXhpZjpVc2VyQ29tbWVudD4KICAgICAgPC9yZGY6RGVzY3JpcHRpb24+CiAgIDwvcmRmOlJERj4KPC94OnhtcG1ldGE+CjC7P5EAAAAcaURPVAAAAAIAAAAAAAAAMAAAACgAAAAwAAAAMAAAF7PaBAJmAAAXf0lEQVR4AeydBbAcRRPHJ7i7FO7uENyCQ+HuFG6FuwV3t4LCKkhhgYIEKZzg7u7BneAu8/V/Pnrpm9vdu727t+9d9j9V762N9P5mdnp67Po557z80ZEACZAACZAACZAACZAACZBA5Qj0kzemQVS5bOcLkwAJkAAJkAAJkAAJkAAJgAANIpYDEiABEiABEiABEiABEiCByhKgQVTZrOeLkwAJkAAJkAAJkAAJkAAJ0CBiGSABEiABEiABEiABEiABEqgsARpElc16vjgJkAAJkAAJkAAJkAAJkAANIpYBEiABEiABEiABEiABEiCByhKgQVTZrOeLkwAJkAAJkAAJkAAJkAAJ0CBiGSABEiABEiABEiABEiABEqgsARpElc16vjgJkAAJkAAJkAAJkAAJkAANIpYBEiABEiABEiABEiABEiCByhKgQVTZrOeLkwAJkAAJkAAJkAAJkAAJ0CBiGSABEiABEiABEiABEiABEqgsARpElc16vjgJkAAJkAAJkAAJkAAJkAANIpYBEiABEiABEiABEiABEiCByhKgQVTZrOeLkwAJkAAJkAAJkAAJkAAJ0CBiGSABEiABEiABEiABEiABEqgsARpElc16vjgJkAAJkAAJkAAJkAAJkAANIpYBEiABEiABEiABEiABEiCByhKgQVTZrOeLkwAJkAAJkAAJkAAJkAAJ0CBiGSABEiABEiABEiABEiABEqgsARpElc16vjgJkEBvEfDeh6T79UMVTEcCJEACJEACJGAJlK0naRBZ+jwnARIggRIIlF3Rl/BKTIIESIAESIAEOkagbD1Jg6hjWceISIAESKA5AmVX9M1JRV8kQAIkQAIk0DcIlK0naRD1jXynFCRAAhUiUHZFXyG0fFUSIAESIIGRgEDZepIG0UhQaPgKJEAC3UWg7Iq+u+hQWhIgARIggaoTKFtP0iCqeonj+5MACZROoOyKvvQXZIIkQAIkQAIk0AaBsvUkDaI2MotBSYAESKAVAmVX9K3IyDAkQAIkQAIk0FsEytaTNIh6K6eZLgmQQGUJlF3RVxY0X5wESIAESKArCZStJ2kQdWUxodAkQALdTKDsir6bWVF2EiABEiCB6hEoW0/SIKpeGeMbkwAJ9DKBsiv6Xn5dJk8CJEACJEAChQiUrSdpEBXKHnomARIggfYJlF3Rty8xYyABEiABEiCB8giUrSdpEJWXt0yJBEiABAKBsit6YicBEiABEiCBbiJQtp6kQdRNpYOykgAJuEkmmcQtv/zygcS7777rXnrppa6jUnZF33WA+pDAs88+u5tnnnmCRE888YT77LPP+pB0FIUESIAE6glQT9YzaeaOF0/8G4kYjDbaaH7WWWf10047re/Xr1+v5e3YY4/tZ555Zj/FFFP0qhzdWL4nm2wyP8000/hRRx211/Kvr3JbYoklxJ74vzvrrLO6ko/K31cZq1zTTTedR1nU67zjwgsv7AcOHOjnnHPOpvznxdWXnh1yyCGaXX7dddcdqd6tL3EuWxboRtSxs802m4fOLDt9TY96svX2J/VkNjvqyWw2+u2lHFsK1Hbl8eSTT/o333yz5T80+FNeptL3VlhhBf/444/7P//8M1HgP//8s7/iiiv81FNP3eNsJp54Yr/nnnsGGb766qtEBpz88ccf/oMPPvBDhgzxW265pZ9gggl6XJ5uKh9QyAcccEDg8+GHHybs/vrrL//xxx/72267zW+zzTbkJh0XrOh7rs5G58Upp5zi7733Xj9ixIikHP7222/+nXfe8YMGDfKrr756XQNylFFG8TJyEvy/+OKLI9W33ZsGEfVk58v6LLPM4m+44QYP3agOOvPBBx/0/fv37/GySz3Zep5STzbPjnqyeVamrdhSoLYrDatstVIqcpx77rnblsFA6Pq49tprr1x833zzTY8ZRaikTj31VP/rr7/mymAfovHUm71yfSnvJ510Un///fdbPJnn8NeXZO8NWVjR90ydveCCC4ZOi8zCZx4ceeSRNeVwookmSjpivv3225FqZLM3DSLqyc6W9UUXXdT//vvvpiTXnv7zzz9+jTXWqCnbnarjqCfby0vqyWL8qCeL8cJ33mtriGTUwo0//vgiQ62THkq39NJLh5vvvfeek97GWg//XokB4KTnPPVZ1W7KFBX3wgsvuDHHHNP9+OOP7vLLL3fXX3+9m2mmmdzuu+/ullxyyYBk6NChbr311usonsknn9wNHjzYDRgwIIn366+/drfeeqsbPnx4mG+PPJWpc26uueZy8pE66U12Z5xxhpMRkSRMVU/ARkb1Ah8w+PTTT93dd98d8lOmdIT7c8wxR+A7xhhjuF122cVdfPHFVcUV3htlCMzgzj77bLfvvvuG8276J82wIC7yuC+45ZZbzt1xxx1unHHGCeJgXdZDDz3kXn31VSc92qEuWWCBBdxiiy0WnqPOkRH+GtFPOOEEt91227nTTz/dnXnmmTXPuvlCDCJ30kknhVdA/Yl6tCxHPdk50qOPPrp77bXXnMwuCZFCb11zzTVORorcDjvs4DbbbLNwH2vE4OeXX37pWOLUk+2hpJ4szo96sjgzhOiR3pBW41111VWTLptzzz23T8nW6jv1dLi99947YbbVVlvVMJtwwgmTkRup4D2mtnRKHlEw/rnnnkvS/uGHH/yOO+7oxxprrMw0sK4JPa5irGX66ZR83RCPNCITfk899VRYb5UmN6ZZ7LTTTh498WnPq3SPPV+dr7MfffTRpBxeeumlmaO3WBOIclil8tabI0RZnKkni38DYtDXlPGYLaabq0MdEz9v9Zp6snhexaypJ4szpJ4szkzKXUuBOlZZxOmzoi+eH5dcconW46kLoG+66abkeScNkeOPPz6JF+tc5p9//h4rF3E5GVmurUG51FJLkV8T9REr+uJ1RN73gvV86n766SePBlye/6o9o0HU2fLWW+UHa1fVbbTRRnVl3E47l5HOuuetyk092X75oZ4szpB6sjizXpsyJ5VLqhODyN11113h2XnnnecwNa4ZJzu1OGlQhilGGBp///33nfR6uu+//z4zuIxkuOmnnz48lwXDTuYPh/PxxhvPLb744k4a+E4aCO7mm292mAYGJyMcYVqJzO1O7mnamNqE4XZM5/n888+D//jflFNO6ZZddlknu6OEKSeYmiLre2Jvha5PO+20ZPqZfAROFuLWhH/55ZfdvPPOG+7JiJGTkZya561cYCtaTD+QXdBC8BVXXNENGzaslahywyAd5AO4f/nllyFNTA/Mc2l5hGl6YIP4MC0I+Q35i0y71HzG9L9my1ienHiGd8J0Ctl0wo077rhONlFoFKTh81aY2Ugx9RLviGkjshmH++STTxymr77xxhvJN2L967lylzUkTjbV0NuBOaZtYhtQlPf77rsveWZPpppqKidz/J3sbBbS+eijj0KayCvrkI9pU+bwTS200EJuxhlnDPkrSjT3+7dxln0uDbOQZF+YMifrMcPUOAiEbxjfcisO5QXfGcoy6l/rbF379ttvO31/lFXkGcrG008/HaZIywJ3GzScy/qL4A/lA2ULZRHT+bTOrgsgN2T3MAe+mIaKehxO1iE4WSvlUFfj20OastlLeJb1r+iUOUzvgZz4hjAdC9/OI4880pFvW2VsVU+CB2TD+4M5vrFnnnnGyUYuGnXqUVmiLsA7wSFPwBLTKJHvsr4x1Kl4hrjxPcpmHDVxQ6+ivCH/H3vsMffWW2/Be52DDsZ3jqmZmHqNvI7LVF2gBjfWXHNNJ5vTBF/IU9k8pCYE2ht77LFHuLfOOuuEad81Hlq4QPmump5stYzl4aWe/I8O9eR/LHrirGM9ISJc23EVHSGSj88fdNBB/osvvtDOn+SIKVwYas2SSyrcxC+2l4U/mUfsEc46DLVrHHfeeWd4dOWVV4Z7W2yxRdgFzPrHufw+isc2tBoO56LEY29hpxtZA9HWVDbsPqbu8MMPT9JE2rJuRx95UT41z1S2Vo5HH310Ei92sWsljrww8rsfXtY0JGnYE+y8ZPMkjifOI2yV+/rrr9sowjkW0Mp6HC/KO1f+dspYLFt8badpiEGRK0ccNr5uhxniwveAvMzaHAO7h0ljOVNG5X7ZZZcFP1gEG+ehdC7UhZdGQ9hFDzvqpTkxgL1+nyqn+sOOaJgWKmuJ6uRG/uKbkwZ3XZoxu7KvVf6y001LTwxxr+yxk1yan2bufffdd+G1wDz2b+taTLuTjiF/3XXXeeSRddj566KLLkrCY4rv+eef7zFyFbuHH37Yo+zEaek1dsaD23XXXcMUwMMOO6xmZzGNTxqsHt+OhouPzY4QYTorZNd0NX4cscPmpptumplGnGaj66J6EvFJI99L55gVK5wj72+88cbwHWWlq++09dZbh3dA/SuGbU1cmLqt4ZUZdszEPTHCPKYExw67kWKatYZDXYwdDu1OqRoGMyHwravfokfp/NSo/D333FMTD8qZGM7hOXjY+qZoOtZ/lfQk3rudMma5xefUky7UddhtVuvqpDD/e0I92b79IeWuI5HUVC7txFmkosfUDlkUWVMusMORjArV3EOllCaTVdLSc+XtWhwbga2EtdH3/PPP+0022aRGoUOZW4dpZNjuepFFFqnZwjaWD2H222+/VBnT5I7vQT7sIgcnI1lJZY6pMLYigbxx2FavrXEnC7I7Fi/kkU01PPJR3d9//11ndIItfkMiTX6bR7II2iO8Ohi79hr3YWDB6EmLq90ylhanvXfOOeeoaKHhZp8VOW+XGXZA0m2TVSCUZ+mVramAwQ6NmzTZlDuMIKx5kp5xjSo5xr8bhC2c076HJICcSC92TYeB/W6POuooP2zYsMQ7GtiysUhyjRN8E/PNN1+qzGnvUcY9FbCMtJpJA8auOnSiNBMm9tOsQbT55pt7GZnR5DzWNsaGEfIVjVTZICbxh93B4Nc6GYn3MuKbKq824rEWFYaKdXFdjTKDxlz8TrjWxj3CZ/0OkfTaehn9tEmEBjZ+bkAdGvmrrLJKahpp6ebdK6InEQ9+DsEyBhuwsw5GAuqBtHSV5cEHHxw6TtI6TSwby0xGkGr0X8weXFZaaSWPDhToVXUwguPG3y233JIqX5rMafdkdDpEDxYyYpTEBaNb3QUXXJDcT4ujyL2q6EkwabeM5XGlnqSezCsfHXzWvQbREUccoXWYl2H/pNGDRuyAAQO8XSgcbzYAgLZhdeyxx4btONHgQ6MNPeHoJYIfC1sbfaiooRQw6iI7f3n0PkGBozdadmdK5JKh/tC4hxLAvGSZThHiQ2/iySefnPiTIWEv0wRq0rLpNjrff//9k7jw3mi02lGRE088seW447RtTxvkxnvHflq9RkMaccJBUeK90ION+GAA7bPPPolBA+WZxizOIxhBGEXTERj8EB6MQzSU1eF5msztlrG0OO29DTbYQEUIv9WEEUr7vJnzTjBDOscdd1zoQUaPOnrx1UgEY5lOksiJnt40uZQ7Gobo/Yd75ZVXQrmXKTqhh8uuYUNngd1WGIaU7PYU8hmNI5lm54+ShrFMY6lJz3632gjHOrmNN97Yy/TD4HeGGWYIvzWiQqOnupPlNO39i9xTuYqE6Um/MBrUoadcptjWMG8mbc2LRiNEarBeeOGFoSEsuyeGxjA2a9DOCjRYtf6WKdRhfSLqdeQhygVGstShkZ4mnzbitQGO+PB9YXQK8WCUAyMj6jBaoXWNjc827m2j3/rBqIa6q666KqSB5+iUwjeuMxjAKG80ysaZd17EIJIp2ipaqFthCKjhg44CbKKhDqMwaekqy0GDBiXsYZysv/76XqaoBpaohzSsZYb8hnFz6KGHemztjnoF9YA1QlAPQFfC4ScctP7BBj3Q3Vpm8Bydl5pO0SP0opYx1P+YuSE7oiLa4FCHye63Lcdv5amSnuxEGbPs4nPqyRFaRMOsC+rJHrNbeiziliqVZit6GCvaW4ie6LSdzdDg0sY1KvR4apRtWKG0Ib7VVlstV25t9ME/Klb0fsUfLxSujtjAHxx+NDX2h2soe3Urr7xyqp+0cPE9KHj08MUORhsWk8b+27m23NAQaCeuOKxteMPQjJ/j2i5SlfVTdX5sHqGHNmt6HXqq1WEoOk6rE2UsjjPt2m6KAXnQ0Cii9DvBDHKhYZomH+6hfMG4UZf2w7qWu75HWgNT07j66qs1uvCjiEhDn+UdbflDBOgM0QaeDYf4bKdAX9q0Ql/cytub5zB6be886g2UKzTqmpWrWYMI7572vSEd+23DH3r0ZZ1inQwwitTJ+py654hLG/Hwh9EQ7Yyy74NyYxvE6ICxz3FuG/dpBtGGG26oovhrr722LjzigF7TERqMjsVpFL1uVk/C+NCRK3TipRlj4IsfJVVnR05ULssS/gYOHJj7DpYZ/ONHpzUuPeL7tJ2H8HfMMcfU+YN/GFPqUEY0jlaO+A2tNIeO0LSy1koaCGPrqZFZT3aqjDXiTD3pqSflu2pUTtp83uMJFHqBZiv6Aw88MKnT8hr8mDeubtttt62RxVZY8INRokYwbaPPznWPw91+++2abJgeEj/Xa8ikbvvtt2+YvoZLO0LpWIcRFjQc0vy2c8/21qBRmxUXKkqMhGX9xQ1w9ADbRlWWckIjRo3h4cOH16Vv8wgjB1nyQSFr7zF6J2N/nShjcZxp13gfW140D2HgLrPMMnVy2Tg6xczGmXVuDa+0dTmWO3p8McqTFRdG6ZQ98rxIw9t+t+iUyPuRZoweqLNrFbLkKuu+ylRWes2kgw4kfE/WoUMBIwh2ZC8rLvvtxn5sniFOjODFfnCNHnzr0hrnGg7TOeF0nYre16NtxOet3+nfv3+SpGwaUCeXbdynGUT67cLgyHovyCS/L5ak0wxPfY+0Y7N60vLMGv1B/OgsUIdpinGaliWMp/h5fG2ZoW5N67BAGFvHwgjPqjMwCqVO1+/GaTZ7DZ1opzIiXsjRbPhm/VVFT3aqjDXiSj1JPdmojHTgeXcaRLZnKasSBRwoMHVYQG+BWSWNaVVZc9FtGNvoyzPE5IdHNdnMXi/Ei6l56rLWOtn0084xxG972zU+HNGYgWGSFg7bZGM6Ev6KrBvYeeedkyQw7SEtbtxD4yDPxb9nYlmg8Z0VL+7b3mw05Kxfm0eN1k3pCAIa5zYOnHeijMVxZl0jjzCdx04FUnboJc8yjDrFLEsue98aF2uvvXYdL8u9UQ8y1muoGzJkSF1cNt343H63WY1hDYOGsDr0Muv93j6qTL0tR5w+6kB0Iqlxo3KicwWbZaBhGofRaw3TaMocFuNrmPhotwCHsZvVkEY4/T5hiKR1nthGfJ7ciEuna+F97ZpRPLON+9ggwggoGvJw2LAgfh97jREIddiMxz4ret6sQYROPnUYycpKB++sLm3zHcsS06Oy4tH7llmeIYZ6RF2eoYWOH53q9sADDzRMX+WwR9SxMHxiYwjpP/vss3X5rmExs0T1ZJE1YFXRk50qY8o770g92Xx7nXqyeVamzLUUqKUKySSaGb7Zil4XYmNqGiqprD80utXFCzJtgcHmA83IZxt9eZsJYLc3dVlTv5Ce7V3B3OlmZLB+MMpid+9BYwRK2y6Qz/qBW+wopq6IQYSGu7qsqS+QsahBhN321GHXsKw8xX1tDMG/3c0P6do8SpvSaPnZTSdiw7ETZcym1cw5FD/W8MQbEqAxkGaAd4pZmmwY2cNIEBY8r7XWWn6QrB9QFzcMEd5ybzT11MqdNu0xTR69Z79blAO9n3aEHOqypuOkhevpeypTT6fTavzoZMIaR/0GVF6su8haX9SsQSTbM+fmGYwvONRhefLryAz8pnVmaSMeDeA0g8nGPXjwYEQTXLwBh23cx+Ue34c6vFdenWVHWNvZRAdyN6snhw4dquKFtXx58mn+oXPQssG5skQ9hNHd+Hl8bZlhilr8XK+xGYy6rOmG6ldHlLPWMKq/rKNdmI9yjfrU6hHZBjx1TSrW/qrbbbfdMt8lTrcqerJTZSzml3dNPdm43U492ZhRXMb+BwAA//9nL5feAAATAElEQVTtnQXM7MQWx4s7BHd3D06QENw9OIRA0ABBbiAkuAV3CBAIBAgWXIMTLLi7u7s7ff33vdM77dd2p7vdvt3e3yT3tl87cuY303PmdKazQRAE4SD9W2uttUILZ511Vq5sE0wwgUWpdHzkkUdS+S2//PJJ+osvvjh1r4jJnXfemaSZc845C9MccsghSbxNNtmkMN4yyyyTxDvppJMK4xXJI0YW7r///nCyySaL81h44YXDr7/+2m6Fxx9/fCrvscceO/zyyy/j+6+//nrqXlFZdn3VVVdN8n333XcL004xxRTh4Ycfnvrn8tt1111TaSVjN2GNNdZI5eOWMdtss6XuWR3s+NhjjyVFjjXWWEncuvqYlVP1OM4444Tbbrtt+MorryTy/f333+Hmm2+eyKg862KmvFTnnXfeORST7777Lik372TjjTdOyaH0Vbi7cu++++4j8irj5T63l19+eWnatddeOxH/qKOOKo1bVmbd90youvOtOz89wwcffHD41Vdfmcjh559/Hs4///wjWH7//fdxnDx94rbZpZdeOiKtK/dff/0V5/P888+Xxrv99tsTmSaeeOIRcX///ff4/ttvvz3inluezs8888wkr/XWWy8VX/W3kO33bv+yOD7HY489NlVGVp5Of/vYSeXh6jcfuSzOuOOOm5LPWJbpe1dml9lOO+2UysuNt+KKK1qR4RlnnFEYT2l++eWXOO6TTz5ZGs/N386lNy18+umn4bzzzhvnIXup/CzIhk400USp/K+77rr49r///hvONNNMqXuWf95xTLCTqnddfSyPYadr2Mni8burc7GTxZwyfcw7orciyBRQKZ2Pop9hhhlMf4VSUr/99pvXPyk7Vza3w5x++umpe24899wd9Gmw4N5zz12HaMMNNyyM14tDtOCCCyYcPvnkk3C66aZLlbPkkkuGNkhRxEMPPTS5v/rqqydpTzjhhOS6W4eiczlbFsQ/bzBSlHbUqFGWNMw6ROeff35y748//vBqU7X9aqutlpLft40ko6vMXYeorj5WxMH3uti6A7/sYLMuZuqHGui64dtvvw2feeaZ8NZbbw2vvvrq1MAhOzBUfapwd+XeYIMNUu3XiY373HYaRLkDVhyi7nX9XHPNFb7zzjtJ91D7ZdvJdE22jyqe22addK05ROp72TLcv93nIk8H2SBeLxXcdHnnclAs7Ljjjqn47uA+2++33nprSxbqhYWvLTryyCNTZeTJVHbNx04qvdrCgq9sijfeeOOl5DOWzz33XOp6kYxlzNw0rkN06qmnlubdi0Nkuk1ttMoqq6TKmXLKKcMXXnjBMIV33HFHOP7448dxdO/HH3+M7z3++OOpdG498s7HBDupetfVx/IY+l7DTo7U7a7OxU6O5FPQt7wjVlIGBYV1zMNH0btv71977bWOeRbJ4naYTkba8vAd9DXhEMlwWzjuuONyOaywwgrhzz//bNHC/fffP9TA/6mnnoqvyUAsssgiuWmtztmjjKUNfpTJUkst5Z2+zCFyZw222mor7zyz8vm2kdIVOUR19bGsbN38rbe17733Xtxe+m/qqadO2NTBbJZZZgn11tTCueeem7xBdeVV37GQHRgqXhXucsIt7Lnnnkl93PKKzqs8tzhE9en3eeaZx5osfPHFF0e0memEQXOINNtZ1Jfs+mWXXZbULdu3ywb3bv8677zzOpZj5fV69LGTKsPVb9NPP33X8g2zQzT77LMnbfvoo4/mMtDLRHdgf/3114fSu6ecckqSdo899shNW9SWY4KdrLOPFXH0vY6dTOt67GSah2c/6ipRJcXgKUicp6+ityU9mknQtGmVMixulQ5jaXwHfU04RO5yuc0226yQgWZQ9NbPwrXXXmunoa8jaPW345VXXpnksd9++xWWbfHtWOYQ7bvvvkme7myWpfU9+raR8nMHDO4Mke7V0cd8Ze4UT0s6Lay//voJ7zqYHXPMMZZ1PAAokuWII45I4mUHjUpThbvbD0477bSkPkVlu9erPLfugJUZot51vZZMKfzzzz/h5JNPnmq3QXWIJO+kk06aktXtTzp/+OGHFS0OmrVw75c5RIsvvrglC++9995UOjePus997eSNN96YyLfSSit1Ld8wO0SyjRaKluGrfWaeeebQ+rfi33zzzaHV++mnn+5qnDEm2Mm6+lgdzwh2crSOx06OZlGhb3WVqGvF2kkwX0X/4IMPmo6rPMNhMlTpMJbGd9DXhEOktfgWst+WmLx21CD6zz//tOjx8eOPP06+ObJ4vsctt9wyyeuLL77wzscdCGeXzLlrrrVu21eWbDzfNlK6Moeojj6Wla3bvzXlbcF1Rupg5vLK+zbEZHaNuyuD3XfzKVtOqvgbbbSRVSe87bbbKrV1lecWh6he/a7veixk23iQHaIFFligtI999tlncbXk6LkzsOqrZQ7RJJNMEv76669xWi3Lyn57Y89G3UdfO6mXABb23nvvUgZlMppjMIxL5vQNk4Wzzz67lIG+C5ZddIP6xNJLL12arojdmGAn6+pjRQyrXMdOjtb32MnRLCr0oa4SdaUcfITyVfR77bVXorOuuuqqruSp0mFMdt9BXxMOkbvuvdP6a8mvOG6o+mbeGOioWTkZRwsaLPsMBsocIuVpa71lhBZaaKGu2tW3jVSPMoeojj7mMuvl/OWXXzbU4aKLLppwqYOZ3n5ayL71N5n1ofGHH35o0cJeHSLlZ98EaPZS6+2trE7HKs8tDlF9+n3aaaeNv9lUJ/jmm29GtNcgO0QnnnjiCHmtn22//fZJv37iiSdGxCtziJSHO+NedYMQk6Hq0ddOut+xvP/++/HGKVXLUvxhdoi06Y4F6bpO9dc3v25QGm1C1Cld3v0xwU7W1cfy+FW9hp0cre+xk6NZVOhHXSXqSjn4COWr6KeZZppQH30r6MP+bbbZplQmrRHOKrUqHcZk9x1sN+EQrbzyyone1tLBordYGnyec845SVw7EbfsB8RWT5+jPsSX42Lhlltu6bgLT5lDpDKPPvpoyy5exqJ2LpJF7Zm3Lt63jZRvmUNURx8rkl3XtWORBuydHEktH7SQ9+1Gr8z01tRCdsc+k9/dhUtxe3WIlK92vrGgmQf7kNnKtKMGFXauY5XnFoeos36X3lhiiSVSjF3eOteSs5tuusmaK8x70z7IDpE2anBfJFj9VC9tSGMhb/lvJ4fI3aBGL3S0jM7yzzvOOOOMpffz0mSv+dpJpXOXA6rdyvSNbEV25k95DLNDpFm8H374wZo43GeffQr5y6G1FzVJgujkwgsvjL+9zbaDz99tt5N19bEilthJ7GRR3+jD9c4Gsw+FFiqkKopeTpAbNMDadNNNQ338q6U/Gtzttttu8bcN2jxgwgknTJVbZWBlDHwH2004RJJJ69YtyCk6+eSTQ+3aJWdJ35dcccUVqSUAP/30U/ydiDkyOnZyJq3ueUcZELG1oGV5KlPc11133XigpY0d1C4a2LuzStklc8pfg2IN+i1osKKZGuUx66yzhssuu2yoNeHaovyjjz4K83bI820jlVfmEOl+r30sj5ldU10UtKXxJZdcEi/N0WYS6pfa+veggw4K7777bkMRb46R57D0ykxlWtDmDWo7vUDQbJG+O7jrrrvi26+++qpFq8UhkjOrmQYL6huHHXZY7Nhrow4tA1V/1oYPxkzHKs8tDlFn/a5+pvDmm2+G+sZCToEcXvXPLbbYItSSGLft33rrrfhZdNtE54PqEEnnKWiGRJuQrBLtMqbdw6Qj9VMMFlSvPKe8k0Okul9wwQWWTew86Lu8NddcM9S2/4sttlioJcvi/Oyzz4ZVdyvLctbfVeyk7KG7sY50nmbFJJeWiImDtvjXEmztqLbOOuuknjeVN8wOkeSXXnGDZvW0nE26RD81oA0xXLujuHIe3e3mtdlMXlv4XGu7nayjjxVxxE5iJ4v6Rh+udzaYfSi0ULFUUfSSS8bbtml1FV7eeRsdIu2GZr+TkFdn95q2FpURFLdddtkluSV+nb5BKusDMqA2GEoy9TjJc4hUjgYR2nLXJ/TbIeq1j5VxM0XvU08N5qzt8vLshZneCrtOpOQxh9lku++++0LNmNn1OmaIVA8NTt3fy7Lyske3zjhE9epsc4iyzPP+Vj+YaqqpcvW36YBB22XuhhtuCLU8uCzoO8iimR0fh0i2xZ3xLCuraYdIz46+NbTfnSuTTffa6BCJwYEHHpgs+SxjIE5ylpRGP13hzi71ssy87Xay1z7m6nj3HDuJnXT7Q5/P6zWuvQpb1SFSecstt1y8jju7aYCUnmYv7rnnnvgtUHYXsSoDK6uXO3DMW1pg8ZqaIVJ5Wjqm37XQVtr2Js8UvuqvzQH0Fiy79OiAAw6waPGGC2W/l2T1KjpqNkFLEdw3yUnmzokG9toJZocddhjx8bKbtwYYGojoRxXzgmaOZJzyPpb2bSOV12mGyGTqto9Z+ryjmOmHa1966aXULJvVV9/WqE319lLfb+Tl4V7rhZm2iL3oootCe5tuMujNsvqW/c6L/V5HXQ6R5Ne2uHllSwbNIGm5p1vPKs8tM0Sd9bt+pFJvv91vxKz9ddTS5AceeCB+y1623GpQHaKHHnoo7j/bbbdd+MEHH7hVi5+7a665Jl5V4PYx99zHIbL4mlF2Z53cwvRsafZcS+wsfrfHbuykttfXDKAtNXdl07mebdU1z+E1uzKMmyq4jPW7Ufo9QuurLgP9XpV20sx+R6lZcncZnWYZ3TyrnLfdTvbSx4o4Yif/q8Oxk51tWVEf8r0+1v8iRofhD9GvTgfREoAg2j4ziBRYEK3nDqLlNkE0qBv+ynnWIBrYBtFHjkH0w6Jx/SMHJIiUv2fqeqJF6/KDaHlb/C8yOEFkgJN/0du2SoVETmwQKYI4L+UbvcmN66W2jb6BqpRXHZH71ceiWZpgvvnmC6KlPIHqGS1dC954440gcmgri90Ls8i5DqIf/I2foWhJYqD+EzlmlWXoJoEYzD333EFkVOMy9exGA9ggetHRTXYDnUbPhYLaapBCNBiO2yB62RNIl0QvOOI2GCQZfWWJBvFBNIMeRMvUgmgJZpJMuilaUh3bhWiZXBA53cm9uk6iJafBHHPMEUQvMuL8zRYNQl+OlgXGdlIcFCRbtMteXzjUxbPufPTcRT82HOtctb90nRg0GdpsJ/vVx7CTQYCd7N9T2iqHqH+YyBkCEIBAfQQG1SGqr4b//5zMIYo27AiiTSP+/wIhAQQgAAEIeBNo2k7iEHk3DREhAAEI1EOgaUVfj9TDlQsO0XC1F9JCAAIQcAk0bSdxiFz6nEMAAhBogEDTir6BKg1cEThEA9ckCAQBCEDAm0DTdhKHyLtpiAgBCECgHgJNK/p6pB6uXHCIhqu9kBYCEICAS6BpO4lD5NLnHAIQgEADBJpW9A1UaeCKwCEauCZBIAhAAALeBJq2kzhE3k1DRAhAAAL1EGha0dcj9XDlgkM0XO2FtBCAAARcAk3bSRwilz7nEIAABBog0LSib6BKA1dE9PtCQfS7SfHW8aNGjRo4+RAIAhCAAASKCTRtJ3GIituCOxCAAAT6QqBpRd+XSpApBCAAAQhAoE8EmraTOER9akiyhQAEIFBEoGlFXyQH1yEAAQhAAAKDSKBpO4lDNIi9AJkgAIFWE2ha0bcaJpWDAAQgAIHWEWjaTuIQta4LUSEIQAACEIAABCAAAQhAwJcADpEvKeJBAAIQgAAEIAABCEAAAq0jgEPUuialQhCAAAQgAAEIQAACEICALwEcIl9SxIMABCAAAQhAAAIQgAAEWkcAh6h1TUqFIAABCEAAAhCAAAQgAAFfAjhEvqSIBwEIQAACEIAABCAAAQi0jgAOUeualApBAAIQgAAEIAABCEAAAr4EcIh8SREPAhCAAAQgAAEIQAACEGgdARyi1jUpFYIABCAAAQhAAAIQgAAEfAngEPmSIh4EIAABCEAAAhCAAAQg0DoCOESta1IqBAEIQAACEIAABCAAAQj4EsAh8iVFPAhAAAIQgAAEIAABCECgdQRwiFrXpFQIAhCAAAQgAAEIQAACEPAlgEPkS4p4EIAABCAAAQhAAAIQgEDrCOAQta5JqRAEIAABCEAAAhCAAAQg4EsAh8iXFPEgAAEIQAACEIAABCAAgdYRwCFqXZNSIQhAAAIQgAAEIAABCEDAlwAOkS8p4kEAAhCAAAQgAAEIQAACrSOAQ9S6JqVCEIAABCAAAQhAAAIQgIAvARwiX1LEgwAEIAABCEAAAhCAAARaRwCHqHVNSoUgAAEIQAACEIAABCAAAV8COES+pIgHAQhAAAIQgAAEIAABCLSOAA5R65qUCkEAAhCAAAQgAAEIQAACvgRwiHxJEQ8CEIAABCAAAQhAAAIQaB0BHKLWNSkVggAEIAABCEAAAhCAAAR8CeAQ+ZIiHgQgAAEIQAACEIAABCDQOgI4RK1rUioEAQhAAAIQgAAEIAABCPgS+A9DlxiSTCLo3QAAAABJRU5ErkJggg==;" vertex="1" parent="1">
          <mxGeometry x="865.83" y="110.58000000000001" width="338.34" height="38.85" as="geometry" />
        </mxCell>
        <mxCell id="KJg9MqlY0vVZ_PWW_gGS-5" value="" style="whiteSpace=wrap;html=1;align=left;verticalAlign=top;fillColor=none;strokeColor=#2F75B6;rounded=1;absoluteArcSize=1;strokeWidth=2;" vertex="1" parent="1">
          <mxGeometry x="950" y="237.5" width="115" height="115" as="geometry" />
        </mxCell>
        <mxCell id="KJg9MqlY0vVZ_PWW_gGS-7" value="" style="shape=image;verticalLabelPosition=bottom;labelBackgroundColor=default;verticalAlign=top;aspect=fixed;imageAspect=0;image=data:image/png,iVBORw0KGgoAAAANSUhEUgAAAJoAAACUCAYAAABr9TBnAAAMTGlDQ1BJQ0MgUHJvZmlsZQAASImVVwdYU8kWnltSIQQIREBK6E0QkRJASggtgPQiiEpIAoQSY0JQsaOLCq5dRLCiqyCKHRCxYVcWxe5aFgsqK+tiwa68CQF02Ve+N983d/77z5l/zjl35t47ANDb+VJpDqoJQK4kTxYT7M8al5TMInUCFGgAChgJ3PgCuZQTFRUOYBlo/17e3QSIsr3moNT6Z/9/LVpCkVwAABIFcZpQLsiF+CAAeJNAKssDgCiFvPnUPKkSr4ZYRwYdhLhKiTNUuEmJ01T4Sp9NXAwX4icAkNX5fFkGABrdkGflCzKgDh1GC5wkQrEEYj+IfXJzJwshnguxDbSBc9KV+uy0H3Qy/qaZNqjJ52cMYlUsfYUcIJZLc/jT/890/O+Sm6MYmMMaVvVMWUiMMmaYtyfZk8OUWB3iD5K0iEiItQFAcbGwz16JmZmKkHiVPWojkHNhzgAT4jHynFhePx8j5AeEQWwIcbokJyK836YwXRyktIH5Q8vEebw4iPUgrhLJA2P7bU7IJscMzHszXcbl9PPP+bI+H5T63xTZ8RyVPqadKeL162OOBZlxiRBTIQ7IFydEQKwBcYQ8Ozas3yalIJMbMWAjU8QoY7GAWCaSBPur9LHSdFlQTL/9zlz5QOzYiUwxL6IfX83LjAtR5Qp7IuD3+Q9jwbpFEk78gI5IPi58IBahKCBQFTtOFkniY1U8rifN849RjcXtpDlR/fa4vygnWMmbQRwnz48dGJufBxenSh8vkuZFxan8xMuz+KFRKn/wvSAccEEAYAEFrGlgMsgC4tau+i54p+oJAnwgAxlABBz6mYERiX09EniNBQXgT4hEQD44zr+vVwTyIf91CKvkxIOc6uoA0vv7lCrZ4CnEuSAM5MB7RZ+SZNCDBPAEMuJ/eMSHVQBjyIFV2f/v+QH2O8OBTHg/oxiYkUUfsCQGEgOIIcQgoi1ugPvgXng4vPrB6oyzcY+BOL7bE54S2giPCDcI7YQ7k8SFsiFejgXtUD+oPz9pP+YHt4Karrg/7g3VoTLOxA2AA+4C5+HgvnBmV8hy+/1WZoU1RPtvEfzwhPrtKE4UlDKM4kexGTpSw07DdVBFmesf86PyNW0w39zBnqHzc3/IvhC2YUMtsUXYAewcdhK7gDVh9YCFHccasBbsqBIPrrgnfStuYLaYPn+yoc7QNfP9ySozKXeqcep0+qLqyxNNy1NuRu5k6XSZOCMzj8WBXwwRiycROI5gOTs5uwKg/P6oXm9vovu+Kwiz5Ts3/3cAvI/39vYe+c6FHgdgnzt8JRz+ztmw4adFDYDzhwUKWb6Kw5UXAnxz0OHu0wfGwBzYwHicgRvwAn4gEISCSBAHksBE6H0mXOcyMBXMBPNAESgBy8EaUA42ga2gCuwG+0E9aAInwVlwCVwBN8BduHo6wAvQDd6BzwiCkBAawkD0ERPEErFHnBE24oMEIuFIDJKEpCIZiARRIDOR+UgJshIpR7Yg1cg+5DByErmAtCF3kIdIJ/Ia+YRiqDqqgxqhVuhIlI1y0DA0Dp2AZqBT0AJ0AboULUMr0V1oHXoSvYTeQNvRF2gPBjA1jImZYg4YG+NikVgylo7JsNlYMVaKVWK1WCN8ztewdqwL+4gTcQbOwh3gCg7B43EBPgWfjS/By/EqvA4/jV/DH+Ld+DcCjWBIsCd4EniEcYQMwlRCEaGUsJ1wiHAG7qUOwjsikcgkWhPd4V5MImYRZxCXEDcQ9xBPENuIj4k9JBJJn2RP8iZFkvikPFIRaR1pF+k46Sqpg/SBrEY2ITuTg8jJZAm5kFxK3kk+Rr5Kfkb+TNGkWFI8KZEUIWU6ZRllG6WRcpnSQflM1aJaU72pcdQs6jxqGbWWeoZ6j/pGTU3NTM1DLVpNrDZXrUxtr9p5tYdqH9W11e3Uueop6gr1peo71E+o31F/Q6PRrGh+tGRaHm0prZp2ivaA9kGDoeGowdMQaszRqNCo07iq8ZJOoVvSOfSJ9AJ6Kf0A/TK9S5OiaaXJ1eRrztas0DyseUuzR4uhNUorUitXa4nWTq0LWs+1SdpW2oHaQu0F2lu1T2k/ZmAMcwaXIWDMZ2xjnGF06BB1rHV4Olk6JTq7dVp1unW1dV10E3Sn6VboHtVtZ2JMKyaPmcNcxtzPvMn8NMxoGGeYaNjiYbXDrg57rzdcz09PpFest0fvht4nfZZ+oH62/gr9ev37BriBnUG0wVSDjQZnDLqG6wz3Gi4YXjx8//DfDFFDO8MYwxmGWw1bDHuMjI2CjaRG64xOGXUZM439jLOMVxsfM+40YZj4mIhNVpscN/mDpcvisHJYZazTrG5TQ9MQU4XpFtNW089m1mbxZoVme8zum1PN2ebp5qvNm827LUwsxlrMtKix+M2SYsm2zLRca3nO8r2VtVWi1UKreqvn1nrWPOsC6xrrezY0G1+bKTaVNtdtibZs22zbDbZX7FA7V7tMuwq7y/aovZu92H6DfdsIwgiPEZIRlSNuOag7cBzyHWocHjoyHcMdCx3rHV+OtBiZPHLFyHMjvzm5OuU4bXO6O0p7VOiowlGNo1472zkLnCucr4+mjQ4aPWd0w+hXLvYuIpeNLrddGa5jXRe6Nrt+dXN3k7nVunW6W7inuq93v8XWYUexl7DPexA8/D3meDR5fPR088zz3O/5l5eDV7bXTq/nY6zHiMZsG/PY28yb773Fu92H5ZPqs9mn3dfUl+9b6fvIz9xP6Lfd7xnHlpPF2cV56e/kL/M/5P+e68mdxT0RgAUEBxQHtAZqB8YHlgc+CDILygiqCeoOdg2eEXwihBASFrIi5BbPiCfgVfO6Q91DZ4WeDlMPiw0rD3sUbhcuC28ci44NHbtq7L0IywhJRH0kiORFroq8H2UdNSXqSDQxOiq6IvppzKiYmTHnYhmxk2J3xr6L849bFnc33iZeEd+cQE9ISahOeJ8YkLgysX3cyHGzxl1KMkgSJzUkk5ITkrcn94wPHL9mfEeKa0pRys0J1hOmTbgw0WBizsSjk+iT+JMOpBJSE1N3pn7hR/Ir+T1pvLT1ad0CrmCt4IXQT7ha2CnyFq0UPUv3Tl+Z/jzDO2NVRmemb2ZpZpeYKy4Xv8oKydqU9T47MntHdm9OYs6eXHJuau5hibYkW3J6svHkaZPbpPbSImn7FM8pa6Z0y8Jk2+WIfIK8IU8H/ui3KGwUPyke5vvkV+R/mJow9cA0rWmSaS3T7aYvnv6sIKjglxn4DMGM5pmmM+fNfDiLM2vLbGR22uzmOeZzFszpmBs8t2oedV72vF8LnQpXFr6dnzi/cYHRgrkLHv8U/FNNkUaRrOjWQq+Fmxbhi8SLWhePXrxu8bdiYfHFEqeS0pIvSwRLLv486ueyn3uXpi9tXea2bONy4nLJ8psrfFdUrdRaWbDy8aqxq+pWs1YXr367ZtKaC6UupZvWUtcq1raXhZc1rLNYt3zdl/LM8hsV/hV71huuX7z+/Qbhhqsb/TbWbjLaVLLp02bx5ttbgrfUVVpVlm4lbs3f+nRbwrZzv7B/qd5usL1k+9cdkh3tVTFVp6vdq6t3Gu5cVoPWKGo6d6XsurI7YHdDrUPtlj3MPSV7wV7F3j/2pe67uT9sf/MB9oHag5YH1x9iHCquQ+qm13XXZ9a3NyQ1tB0OPdzc6NV46IjjkR1Npk0VR3WPLjtGPbbgWO/xguM9J6Qnuk5mnHzcPKn57qlxp66fjj7deibszPmzQWdPneOcO37e+3zTBc8Lhy+yL9ZfcrtU1+LacuhX118Ptbq11l12v9xwxeNKY9uYtmNXfa+evBZw7ex13vVLNyJutN2Mv3n7Vsqt9tvC28/v5Nx59Vv+b5/vzr1HuFd8X/N+6QPDB5W/2/6+p92t/ejDgIctj2If3X0sePziifzJl44FT2lPS5+ZPKt+7vy8qTOo88of4//oeCF98bmr6E+tP9e/tHl58C+/v1q6x3V3vJK96n295I3+mx1vXd4290T1PHiX++7z++IP+h+qPrI/nvuU+OnZ56lfSF/Kvtp+bfwW9u1eb25vr5Qv4/f9CmBAebRJB+D1DgBoSQAw4LmROl51PuwriOpM24fAf8KqM2RfcQOgFv7TR3fBv5tbAOzdBoAV1KenABBFAyDOA6CjRw/WgbNc37lTWYjwbLA56mtabhr4N0V1Jv3B76EtUKq6gKHtvwBrXYMyn9YgfAAAAIplWElmTU0AKgAAAAgABAEaAAUAAAABAAAAPgEbAAUAAAABAAAARgEoAAMAAAABAAIAAIdpAAQAAAABAAAATgAAAAAAAACQAAAAAQAAAJAAAAABAAOShgAHAAAAEgAAAHigAgAEAAAAAQAAAJqgAwAEAAAAAQAAAJQAAAAAQVNDSUkAAABTY3JlZW5zaG90BGcpCQAAAAlwSFlzAAAWJQAAFiUBSVIk8AAAAdZpVFh0WE1MOmNvbS5hZG9iZS54bXAAAAAAADx4OnhtcG1ldGEgeG1sbnM6eD0iYWRvYmU6bnM6bWV0YS8iIHg6eG1wdGs9IlhNUCBDb3JlIDYuMC4wIj4KICAgPHJkZjpSREYgeG1sbnM6cmRmPSJodHRwOi8vd3d3LnczLm9yZy8xOTk5LzAyLzIyLXJkZi1zeW50YXgtbnMjIj4KICAgICAgPHJkZjpEZXNjcmlwdGlvbiByZGY6YWJvdXQ9IiIKICAgICAgICAgICAgeG1sbnM6ZXhpZj0iaHR0cDovL25zLmFkb2JlLmNvbS9leGlmLzEuMC8iPgogICAgICAgICA8ZXhpZjpQaXhlbFlEaW1lbnNpb24+MTQ4PC9leGlmOlBpeGVsWURpbWVuc2lvbj4KICAgICAgICAgPGV4aWY6UGl4ZWxYRGltZW5zaW9uPjE1NDwvZXhpZjpQaXhlbFhEaW1lbnNpb24+CiAgICAgICAgIDxleGlmOlVzZXJDb21tZW50PlNjcmVlbnNob3Q8L2V4aWY6VXNlckNvbW1lbnQ+CiAgICAgIDwvcmRmOkRlc2NyaXB0aW9uPgogICA8L3JkZjpSREY+CjwveDp4bXBtZXRhPgpcR0G3AAAAHGlET1QAAAACAAAAAAAAAEoAAAAoAAAASgAAAEoAABDI0uWcGgAAEJRJREFUeAHsnUmI7FQXx6vn7tfT6/fe94kiiCAu/EThQ1yIICqOK0VRUBciorjRhaCooIIDouCACCoKTisVFURw606cwGGhC21x+l7P8zzc7/zOzUkl1dVdXVVJVao74VUnubm59+acf/5nuEle23/O+a8r5EsugZQl0JYDLWUJ582rBHKg5UBoiARyoDVEzHknbQMDg7mPluMgdQm0OVlS7yXv4NBLIAdaFRAovSXb2qo4+ZBXzYEWAMCDKGlybyvkYPQCPpRA2wtUCrXinxp4SGjO/9vl3MMJvkMBtN2AFS0vYsuzmv8rWNm5UQKgwH7GV1KnFHC7AWy38pJuWnz3wAItCiLTUbTMtj3AIuCSA3FsRfZpyA4GwKLIb3pghftiM8Mq4XYUVNFtzmIpV+aPtPrfAwc0A5ApxvYNUOHabxQ4rlAqu6YVPRDiy9q1tYIp+GPbCjHZia69rxYAyYBn6x0AO3iAOzBAi2ZpPIYCJoKhfIGs/TZHbJuDuq1l4IqjkbVuagmlZZc2jyLPYAYe1gHY9Ljt6/HgGBUMZFrOrhyL9GJtR4pacrPlgRYDWBRQqMNAJOUeWB5U22G534e1pKjQ3t4uv7ZgLdtt7YU29lF+8Itq2drU9rZdYdttF7a37Sf7si2nyVI8n3ai7fl2wReo9CDTbQNg0KEvi/beWtstC7Q4wCIspCAqB6xtDzYFhFPFdnS0Fzo6OgqdHZ2Fzs6OVDS3ublV2NzaLGxtbcnPj0GBJgD2IAPQtm3rcsDzw2tVwLUc0GAeGEj/Aiq/sZOxAkA5ZRnPXDAWgOrq7EoNWDqwPf4AvI3NjQJrz3gwKAALAFfCoAqsGNPROPX36CSDh1oGaHGAIUkPnp3mS8oxX3KCKbKrs7PQ3d2l7JUlHcBy6+sbArxNvVHUdAMqTLiud5rZOMhaB3AtATQzk3uzF76RBxf1MYvd3d2F7q6uLGFr17Gsb2wI6NbVvMJiob9Yxk+MshwNtoI5zTTQ4izmzaQymACKddH59gCDwbq6Ogs93T1NM427ImmfBzCpa+trhY2NzWJQgjlVlpPgJGA6XcdAlm12yyzQDGSlLBZGeEF0txWsO8U89vYKwMS5PwjLppjV1dU18eU84Do0IhaTKusdkTDg04vOLtgyCbTQVArK4DFjMc9gRfaCwRB8b0+PMtlBAFjpNcBsq2tr6m96c+rBpmmYwKx6diuCLIumNHNAK4IsAJiaSAOXrYnYnDIYIDsMC2CD4Xyer8Ob0tCkArLiD3lkDWyZAZqZSoSkDBYAzAUOvplIIjVSFEf6+lTY1D8sCwy+vLKiqRHyfzCcmdQd5lSFUmS5ZssoE0AzkJk/tpsfBsj6enuVyZotuGb2D7OtrK5quiYKNrYNcEJpmfLbmg60EGTmj2lE6VMVW9tiIiWbDpuJ3JTFcPrzpaBBAuyG/JTVmOVoh+VgMQ84oIbc4rm35kivqUDbCbJiotUAZqZyoL+/ORLKeK+LS0uhKTXAadAAo8FwGQFb04AWA5ns6FSRrKMAA2Q9knQ9cqQv4+pu7vCWl1ck97auphTfLQQcYIPddM0YjeEaP96mAK0syEKn308+AzLyYvhk+VJZAvhs+G4KtNCMkgrJBtgaDrQYyMiRacLVpy3wyXjCgWTlkT5x+g9J6qIyjPZXgxTI8sqqJq31yRT12QKwNdmMNgFoAi6Rm0/CFucnc5DtD0yValUEG2ZUGml0nq2hQIsmY3UCnEd4NKrMmawSgKo5XhZsYk55kNOb0mDCSkDXqKVhQIuBDOdfTCZpC0wl/hjmsk9MZZ+YzHypXwIrYkJXxJQy91v020h7ADj8tsaCrSFAK/plRJc2jeRCgAE0Hunpz6PL+hEWaWFJolEePQJoBjg/hWWRqBpRAV3kpJQ2UwdaEWT4ZUGeLGou5ekEkrCDA3meLA0dLyySZ/MyDgMENaMWjdIr22n0XmyzAUArdf7j5pKhHB0eKo4o30pcArNz89qmsRqA89NVAbPJUTOliXceNJgq0Er9MiaFcf7xx9Qvk4f8hocGlNHSusC8XT9dNTe/qA8jmBltD8DWKH8tNaAVTab5ZeKTBXkyD7JNdfzzhGxjbgUSugQIuCnF4MDmRi04SM+Epgi0uMmMRZjiM3CxQ4MDjZFy3otKYH5hUS1JHGw+EtVpKqmVlglNBWhRNrO3kcI0hoAM0OGXMSeXL42TAHLHX0PuUbCFk/AaEaTDaikBDXMZRJnBHKb3yzb1SQPMZZ4vaxzAoj1pfk3MKA+PdvDitFgWBVo4J5oOqyUOtFgAgPMvQLOELGE21JxHmVHVN34bVkNPsJpFotH8GiNK2oSmAjQugh9RpvpmEl3CaABtUPyyVnnXsvEQaEyPvEO6IP5aCDTYjRkD+amvJmSQaaAZm/lHsQOQkcoQoG3ImrsnDwAaA6ZKvRAYcPN3iU461Ix6sNkUFecnCbZEGc2YLGSzIGcGk/Fi7NHhQb2LKgkhP56+BNDJ7NyC+mohs1kiN2C0TALN2CwEGWZTzaU3mVxMzmbpA6iaHpTVBHAKtAirmQmlraTAlhijVWKzYWEzPraSL9mRAB+XmWsQqyUCNFIZkswIAwCCAO/8ezbjDskjzewALDoSIlD0ZaxWTHf4wEA4TVgtekZt2wkBLZgFkAFrOoOppiDS5K4ZlDeYenq6axthflaqElhbWy8syJtUWBtNdWgEGkxNEYVK70mYz+SARjqDX+RBRhxOyo6PHE1VWHnj9UlgamZWH4YsBgUCtPBRomRSHXUDzYKAMKURizQ3hcl6CgP9R+qTRH52qhJYXFourPE0LqxmzCZASzLVkQjQ8NH8Jzz9s2Z8s1U/oSlfwhk5OqSDT1VSeeN1SQDLMzM7r19kYmqKb/qGz6zpe6H1m8+6gAbAikGAnwmwGQAGjxd57OhwXULIT26MBKZn52CLGKsV50DVU6srKKgTaIo09cP0ZRM1mwGbCdB4LzM3m40BSr29YD55e0qDggirJWU+6wZaObO5QcQpZpOUBp/6zJfsS4AP/pHq6BR9dUWA5pO3pDrqM58JAK0k2hQmI6VBmuPE8ZHsSzgfYSiByakZfe/Ts5p/Ejep6LNmoMX9MwsCfIIW/4zoZXhoMLyIfCP7EpibX9AnbEqjz+KUVO3J2zqAFvhnPNgor9FF5zUBGl9kzL8ClH1wRUfIV4n45loINJK3PBgZvOFO3VqTt3UBLeqfRaecMJ0j6p+1xjf+o8I+zNsb8pzajPhpZjp9qsM/ges/f9U0oMX9MwAGm5FD+/e/jtelM5ukh7b3WpinYymtRzl3337uwGrq7jWWg3BsfGJKGE1yaeL6ADhltARmCWpitB3+mSjVz21KICDRC8vxY3kg0IrAm5qe0WGTLdDELeZTbvZ6/bS6gBafdirOBnBH1Pu0xu+//y6PsMwVTj/99MLx4+XZEfb85Zdf9OmDs88+W6e7kNLMzEzhjz/+KAwNDRXOPPPMPfW9sLBQGB0dFX/ySOGss87as+5hOEiKA4ukQIPZglmCYj6txoBATFTVi5gayc9uOxmQk/80y8nLqU6+8eBmZuecUK+TB+qqbrP0hKuuuopowz3//PN6SIKN0iru77//dgMDA1rvhx9+CI+/+uqrWnbppZeGZaUb1t7HH3+sdc8777zSKodyH92hQ3SJTtEtOkbXpvdaBMMzZFUvdCgvnUjnmzKIdSevcDl52cFNz8y6sYlJt7S8XHWbdgJts5QCjb5ssTp//fXXvoBm9e181tZerUCjTdqwX7k+ov0BbOoawDm22znVth3tp95tdIcO0SU6RbfoWMcu17zbmCv1WzvQtryg5SO9TkJiZTF53MSNjU86+ZZqpX4rHr/66qudOPLuhRde0LpRBdnJMNrg4KDW+/HHH63Yvfbaa1p22WWXhWWlG9beJ598onXPP//80iq77tu5pRVQRulSrWJ2a3u38tL+6t1Hd+gQXcJu6BYd+5ukKUDbchJl6iAk/+Lm5xecOJLu5PiEUm2tF2yKyTqjjY6Oug8++MC9+eab7qOPPnL//PPPjku2a+HAt99+6z7//HMXNfEnT550y2XYn7ZgWtp+//333W+//baj7bQKMJPoEF2iU3QL0NA1YI9eUzVjqIPRAqCtrYupXHGSVXaTAG1sQtFfzSCide1Csgg0xsbvwQcfdPKcnfp2+JH8hoeH3VNPPaWXYvXYgWkvuuiiWN0rrrjCvfjii04CkPAczBPLc889p21Zu6zp6/7771e5mny0cgp/YC50iC7RKbqVp3CbDLQNYbS1NfXJFGhT0+5/Y+Pqv9UqAxMkphMhWzAQNUtWp5E+mvX5wAMP6LiOHTvmnnjiCffOO+84yvr6+rT88ccf10un/p9//ulOPfVULb/gggvcY4895u6++27dNyA99NBDoagAH+W0RTlt0x59UX7XXXeFbYcnJbyB740OJ0WXHmjLqmNJWzWR0aRzebTELS0tOwmLdXAMUsZa82IKNaCZj1YJaFEfrTTqtDajg7L29hMM2Pk//fSTkwSm6+/vd1999VW0OTWL8nlU19vb63799Vc9BjAAyPXXX+8k6x7W//LLL52kXtQ3fOSRR7QcUFJG+59++mlYl43vvvsuZLlvvvlGj6Xls6E7Axo6RbfouMlA29BByLNMCrQJGO3keExIte5UYzoJGqK+T9JAM1A++eSTCpybbrpJL8uiMQPRJZdcosfffvttPQ6bSaJTgUIB7G8m8p577tG6BrQ33nhD9y+++GI9lzbpl3NYbrnlFgUmLMpiY9KdhP+gQ3QJ0NCtB9pGMxkteaAZe1xzzTUqeGO0cnewRZ2wRpqMZn3ffPPNquzXX39dfTVTNmvGfd999+nxZ5991k1PT+v4TznlFEkTLIRQsLrvvvtuDGj33nuvnvvoo49qXWsbwNE2vhs3lJlPG1PYcIIbmQAa1MqFc6EIgXA4ZLRJz2jUqXUxAV533XWqiKefflqbMsGzY2AcHR11XV1dam5khiDsMmlGs/6uvfZaHdOHH36ofdlYjdFw2AHDM888o/4Z2zLboLKywdk5RKzcIMZod9xxh5770ksvaVW7XmubG472qMdi7ehOgn/QnQJNdBkymuiYcdAnsqhFv1VHnXRSCWg4lLUuJmCcZgR75513alNWzg4XzO/rr79WZZ04ccJNTk6GXdYKNC9EH1lGt03Z+FqM6a233lIZ2JhM6bfeeqsep/+JiQkd22mnnSZ+zlI4Ns6h7ZdffjkGNEwpbWOeOW5t25pIl+OAmcXKw4YT2tBgANPZbKBxPQgC4aIA7HfIaIGPVo8Q7FwDi8x1usVFP6XFMQMZ4yAywwe68MIL2Q2Fb+faFBTjLV2sHxK2MMt+Eram7Ntvv12bw9+yOx1f6owzztC2vvjiCx0L0SKM+/3332t96thYzAc1RoOxGMeVV16pdWmXn42TqJXjmFwWK9edBP/QbiZMJ9dUCWgk/WpdTBGkLojCEO5tt93mZmdnY02+99574fQTaQGWVZmXY2FmAABefvnlul/uj7EQQKPuueeeq6w4NTXlSn9jY2PqlBMtMh7GBZtGl1deeUWPYSotCXvjjTdq2Q033BAGAZxjNwJtPfzww9rMzz//7IhaAeZnn30WbVoTwkSjIyMjbnw8mWAr1kFkB92lAbT/AwAA//9ZmN+kAAAQXklEQVTtncuLJEUTwHPn/d557ex+KoIggqgHFfGiIHrwPxC96EEP4kmvioKCePEiioJ4FEE9eBIv/gWC3vTgWXB3dmdndt6vnvriF5lRlV3dPe50V3dXz1TudmdVVlZWVuavIyIjs2pc0kY4OTlJarVacnR0nOwfHCQ7O7vJxp3N5Nba7eTfG6vJ3v5+G6Vmp1A24Ztvvkmcc/q5//77k1deeSV57bXXkscffzxNf+GFF5IDqQN1Oj4+1vO+/PJLPf7MM8/oPsfywfL++OOPaVkzMzMJn+npaf2wPT8/n0xOTiaUSXj11Vc1/9zcXPLOO+8kn376qdbJ6vnTTz9pPq75119/JcvLy5r/4Ycf1nxPPfWU7i8uLmr83nvvaX6+PvjgA00bHR1N3nrrLS37zTffTIaGhjTd6mDtk55Y4AZ9Rx/Sl/QpfUsf09dct1lb3s3l3d1kyufhYgYanbyzu5vc2dxKQduWynUa7IZ++OGH5Mknn9SGts4kvueee7Sjt7e300tZB3z77bfJfffdl7z00kvpsfyG5f3ll180LyBfu3YtuXr1qsZs86EcYqAn7EtHvP322wpfXJ8HH3ww+e677zQPdbf6//3331oPwCT/wsJC8v777yefffZZcunSpeSTTz7Rc46OjjT+8MMPNU9c9r333pt8/vnnadm60aUv+s5Ao0/pW/q4U9AuUV+5qTMFTuEjcsKd1E7cca3mREK4I/kcHx27yckJNzc7c6Yym2XmGtIZeujPP/90N27ccHLTTqSBe+ihh5x0WrPTnHSy1kckgRsZGWmaxxK5hnSy7tq17FgcU058/J9//nECkRPw3MrKinvsscfc+Pi4tovlE5jd8PCwFrO+vq55RUq62dlZ9/HHHzsBzn399dfujTfe0PpaXVdXV51IQ7ezs+OWlpbcI488oufE7RHXrcjtza1tt7e370ZGR9yo3DN1GpF7GBoeckPSF9yb3d9Zrts5aNKpteMMNGAbGx11C/OXz1KPlnmBBmCahdOONctfVFqr6+bTX375Zffbb7+5r776yr344ovp5flRPv300+6PP/5wv//+u3viiSdSQPNl2EkxtJbWjXh94447lB8ekBlowyMCmvRBn0ATPZAIZICmEq2WSjSE0JXlpULbgQ7gF02wX1U7v6yiKkVdqJPVJ/4xGBTvvvuuE9XoHnjgAffRRx+5Rx991F2/ft198cUX7ueff3bPP/+8+/XXX9MyrG75su1+7Xg345u31qSdXSTRhlUqDwtoly7x8e1/1jq0L9HkSmKIaGPXUJ9BdSLRkHD/u7Zy1rqcu/yovtdff919//33Dff23HPPObElndhfqTRryNSHhH+vrzokWJ1EQ20CGh+pUzs/8LZBow3E5vWgnaA6g/oUGw3olpYWVIX2oa1Kd0lTkdh12JeoymeffbZ09URlrq2tq102Kjaa2mcC3fBQUJ1D3l7uIWi0kR8MINVUotUATNRnAG1mZtrNTE+VrjF7XaHTDPjTjvW6nlxPRpxue3snAm1YBgIjojq9NMNGE3mm6vOs9WtTonGZMPIEND5INIEN0GxAsLgwf9b6nMv8Zl8aWEiE2KYry03fXt/IBgJINCBTiRZUZ69Bo2FoND7m4sAAVvdGsNU4dm3lSlnasKrHXbTA9dWban/ZaJMY90ynrg0u3ZZE40QPGrEfEHhfWubmQI0uV3YaTTUQAfvsltpnfiBg9pn60DoccdIAHYFGATogwM0RXBwMBGwEOj01VYjjlutUobstgKNWZgFS35mBphJN3BpDHQwEqHkHoHF6ZKdFMwQGGnbISsH+NK5aheJbYFX8Z9iSpjZtRoCBgLo2OrDPqG3boHFyMzvNIPNxTUFjqFyF8rYAAzhAGxXDH8AMtqLsM+68ANAyO83cHEeMQIObY3p6UtTnbHlbuaqZ29zaknnVPe830znOzK3hpVn7MwLWvB2DRkGMPBv8acFW43g1+qQVyhsYbRIyaZaBxmyA95+JVFL12d59dAgaFzU7zc8S2EoOVKf/1HSCnRUdVShfC7BSg4n0kaA2/SAgrNgAMhkEeMDac9TaHXcEGoXk3RymPtNZAnHijo6MqqvDLlrF5WkBXBpHx0fqnPXTTpk0K0ptcreFgEZB9erT+9NMojFjcEXWVY2NjZK1CiVpgcPDI3dzbU0hq5No4qStn3bqTG1yux2DRiFNR5/qVwuLIWVwMDE+5qopKVqrPIEpp/2DQ1WbNtLEQVvkaNPutjjQpES/bCiRuc9amPvMpqVQpStXRKrJosgq9L8FmAlYvSnSLHZpAJnObbJaQ2wyZgSkqp0MAuxOCwKN4mxQ0DglBWSoz/Gxcbe0WE20W+P3M167veEODg9yahP7zJYE4dJof7VG/t4KAY1CTX0S42H2gwKz1UIs6pT5zwlZW1+F/rWAPNXk5zUFKj/KDLGqzWwmANCKkGbcaaGgUWAKmsIGYBFsAhqiupqWoqX6F5gFoF+QXqY6ibHNWLKdTTkVoza508JAo7D/lGqiPlm3dnlu1rEwsgq9bwEWNspjdGqLsd4sBa2L0oy7LBw0Ck1dHUGqAddRGIWyLU896mwBv6Aq9K4FWGHDLMCQrMbA6NeZAACLpFlRMwH5uyoUNApvkGrAJnBlMwZ+e1zcHcuLzZ/LzFey2i+mBW7dXpfnYsWdIXDVSTJAi1RmkbaZ1bwroFG42WqsV9O1akGi+RGouD9kHxU6W6lQ64uuxlumMoEsD5rs487ohm1mN1U4aBTspRoxro5sDrQmNpofHHipBmxXryxXMwbWG12KmQG4cfOWGvsZZBj/+TnNzldptLqFLoHG5YJfLXJ3qGRjsl0AM3XKVAewFTWMbnWjFzWdHz2Q4W4CMrXNVKL55wFsYaM9hS5mu/RF8a3VFdCopko1i7HTdGBgS77rYZucwJFb2WvFd69za2KX7e3jmG0OmT6BzgwAPjOpQLd+8F0EjWbzUs3ba2FqSn5ZecnGlNXM9LSbvzzXjba+sGXKa6fkWc0dfQC4mSTzDwZ7p6wHrDvSjA7oGmgUDmAW62N5ItXs7UMeNmw18a0F+OYZHBTwFiK96AX/2pKHTTbwlyHJxDwxnxn7SDd9hI6RZuT975Y0oyu6ChoXyKtQm55S0BiJBnuNfdQrbyGqnnCn5doPPHHOYkbUooKGzywAZuDpCLMHKtPuogegcSlUKNCJRGNwgARjhYfErFkz6Ng/kfTF+Xk3Xb1OwfroTLG8odHd3tgQV4VJMmL8Zv7VBqouebJJJZkfZXZrABBXvOugcTGvQWN7zbs9MsAyd4fBtiCwVZIt7qr/3vaSLIPM1GQcx/6ybttlcY17AhoXzNtr+jBLPBLNqVAk2+W5ueoB5Li3TtnmAeA7m5tekuVUpqlLG2H2yi6Lq9sz0LhoHWw4clGlsRptAtusvIqzGo3GXda4zehya3u7BWRip/HaKVWXrMzwo0xK6abxn69lT0Hj4o2Dg7B+zWw2gy3sM3iYnJjQBZO9bJh8Q5Vxn7ZkAaO8SVsAwvD3UJkrw/Y5lq6Y7bK/rFU79QE0qhIGB8S4PKIX+ukAAdjCx0s88WqLMbu0cFmmq8Za3cuFSj88PHRr63d0MKUT4kAmRn9mjwVJFkOWev275y9r1Qk9B42KZIODIOGiOVEbjRpogIfbA5sNIHF/XPSJeCbIcV94w17gMmkWQGuQZPruWYPL4lZIdCe9L6C1hC11ffjZA4VNBwwCmbo+BDiBckJUKcDhG7pIAZ8jgPHKedaUqUo0SaaweYlmEi5zYRhcFve+1foGWgNspkaBDQkWJJmXbN7vZmkcJzBIuCjSDSmG0U9QewyVaDZZBFudx1/yCFphktxiLaLnX30FjbutU6MKG/abt9tQowaXSTfbVxgFuHGx2VjXNiET8+cx7MuEOEuvD8Qm80Y9tpdBFuyydN+vK9PXtDO6LAlk9EvfQaMSKWxhxy8FD5IN1YmEI2aAwHZqt/l0Rl9T/LUWAe68PDfKc5ebAtiuvBuD0XYryFLpBmxIMBYwSn7EmF/t019JRpcSSgEaFTHY/LafRYiBi2Hz0HnITLJpXpGEU5O8ZXJ6YEenjCY3t3YEsF1hReCJIFOoRE36GOkVpFsEGFBmbqByQEaflgY0KkOInbrqcxMCdX5UpZpJOT9PqsAFaWcuEn+ODBjGJ+RJqykBb9IXXPLv3b09efX6rryiAAnm14cBkk0ZqboELAXNQ2bHzNMfQ5bBVo4bLx1oNEsGm2zzT2BLbCYh+NxMkpkqtX1GpT6vPw+/0vTUpH7kzxOWo9VDLfhjZzu7e/rBLAAOhUbVn5dcCpsa/dG+AQiQwdOPopTTNZQNMipVStComKlSXdEGaOETq9N6iYYqDRIvDCYYVMTQ8TYjZhl4VxuDiH4EjHreSYY3n7X8MVyqKusgy9lmClhmh3GuQkWsN5PB1o97O+2apQWNShtsfltg0zQv3QBP50rrVGqw2zgm6SYFY9gMWCQdj/xNCHBjEncLPMA6lEfc9iXmUTeTXAZJLMHUkAcmJFuAKlaf+M70vFSKYfMHMRZJNNqrbKHUoFljAQchL908bB48D10ALIDm1SnSUACUNIAz0DRWtQzQvnxUKy+j01c44WXX5x1tQtpLD+tYK0ftRx0Fi90Ynl/lD3voX5AR1UjwUEmsMGTl2AgxlWQmsVLQUKWNEkzrkEqxGDa9XCm/BgI0Ws6zEIDzxNVBYyD52IOlUs2gS0EL0LEv5ShkbAfowJl0H+JtS2see8ESFJhGXo0Bl5CWwQZEup8BhNQCHpVeHAtSLQPRzqdgtq0O8ballTMeGNCs+TwEBhx4SACU6FMHXWqvoWolHyo15NX99LxQjpUXx2xrSAkM+2mPg5MHKh/LAS/RDLAAjcGkgJHmVWZTuIBPi7frDQ5gNAdh4EDz1Q6SKOwoOGxH0BhMxB6oAJiOXuvB9Hl9mYqu8FQXa9nhYvko9L2iAFQgEeJUZQJK9DG7zKcFwKLjsqn55SsHWEjP12EA9gcWNGtbILHgNwNEJJ4KXgabYgVclt/ODbFGfBHscgIDIUQQ4LcjOAw0cjWARr70EwCKzvXn+GvodeTYIIeBB80avw44EoHGYr8RQFKs0m3Np3kBL3ce50uIy/Yp9d8AQ9DvAIuCJwngp8dJZ1+PZ9spUPF5UfFWdpQ0kJvnBjRrfYUlFTvKmxyKoCMjYKXwhaOyr7nqYs3MgahE0rLg4WIfpDTyWwEyEjkCZK2hsuPkIeT3feogf5870KwzDCTbJ47TbNvzpt8eJjng9zhBz8r2/S7fsJAGv6lEaZpnCrxCMGlVB1AzmJqlWSGDHZ9b0OJuMajiNLbj9MAUqZqtHjbNremNXwGn+kiySYL/H05pBVGr9MYrDXLKhQAt30ExYA3HSMioyx++i/08YPlTLgZYDXcthm76480fvEj7p8HXfjtcTKiatdeFlGjNGuJu0vI/SW/g382ZVZ4KtIqBnrRABVpPmrm6SAVaxUBPWqACrSfNXF2kAq1ioCctUIHWk2auLlKBVjHQkxaoQOtJM1cXqUCrGOhJC1Sg9aSZq4tUoFUM9KQFKtB60szVRf4PHGSkLwPH0zsAAAAASUVORK5CYII=;clipPath=inset(6.08% 11.04% 13.51% 11.69%);" vertex="1" parent="1">
          <mxGeometry x="955" y="242.5" width="105" height="105" as="geometry" />
        </mxCell>
      </root>
    </mxGraphModel>
  </diagram>
</mxfile>
